<svg width="53" height="104" viewBox="0 0 53 104" fill="none" xmlns="http://www.w3.org/2000/svg">
<g id="Sapin">
<path id="Union" fill-rule="evenodd" clip-rule="evenodd" d="M41.2782 37.9165C42.0445 37.9859 42.5986 37.2 42.2758 36.5014L26.7178 2.82654C26.3539 2.03888 25.2284 2.05624 24.8895 2.85474L10.399 36.9931C10.0984 37.7013 10.6769 38.4697 11.4406 38.3768L14.3875 38.0181C15.1888 37.9206 15.7698 38.7638 15.3931 39.4777L6.94902 55.479C6.57656 56.1848 7.14055 57.0213 7.93462 56.9408L11.9057 56.5384C12.7041 56.4574 13.268 57.3025 12.8869 58.0085L1.91581 78.3303C1.53846 79.0292 2.08766 79.8681 2.87931 79.8021L20.3427 78.3443C20.9197 78.2961 21.417 78.7465 21.4261 79.3254L21.7891 102.38C21.7978 102.932 22.2525 103.373 22.8047 103.365L31.9653 103.223C32.5175 103.215 32.9581 102.76 32.9495 102.208L32.5865 79.1533C32.5774 78.5744 33.0603 78.1089 33.6385 78.1392L51.1394 79.0577C51.9327 79.0993 52.4552 78.2439 52.0561 77.5569L40.4507 57.5833C40.0475 56.8894 40.5846 56.0274 41.3851 56.0836L45.3669 56.3634C46.1631 56.4194 46.7005 55.5659 46.306 54.8719L37.3624 39.1388C36.9634 38.4369 37.5175 37.5762 38.3216 37.6489L41.2782 37.9165Z" fill="#CCCDFF"/>
<path id="Polygon 1" d="M41.7062 59.7359L52.9844 79.1545L43.4102 78.6528L36.3531 59.4163L41.7062 59.7359Z" fill="#E9E6FF"/>
<path id="Polygon 2" d="M38.7893 41.4382L47.2283 56.4941L39.5022 55.9512L34.3033 41.0381L38.7893 41.4382Z" fill="#E9E6FF"/>
<path id="Polygon 3" d="M25.7712 0.777344L43.0017 38.0723L37.3797 37.5634L25.7712 0.777344Z" fill="#E9E6FF"/>
</g>
</svg>
