<svg width="70" height="132" viewBox="0 0 70 132" fill="none" xmlns="http://www.w3.org/2000/svg">
<g id="Sapin">
<path id="Union" fill-rule="evenodd" clip-rule="evenodd" d="M14.7368 48.8483C13.9759 48.962 13.3759 48.2097 13.6562 47.4936L31.0883 2.97488C31.4044 2.16746 32.5291 2.11951 32.9152 2.897L54.2031 45.765C54.5455 46.4545 54.0139 47.255 53.2459 47.2065L48.557 46.9104C47.7513 46.8595 47.2217 47.7349 47.6404 48.4257L59.9941 68.8055C60.4081 69.4885 59.8951 70.3562 59.0976 70.3219L53.0855 70.0634C52.2837 70.0289 51.7713 70.9052 52.1939 71.5878L68.058 97.2095C68.4764 97.8854 67.9783 98.7546 67.1841 98.7346L44.3191 98.1571C43.7403 98.1425 43.2708 98.6209 43.2963 99.1993L44.6025 128.802C44.6268 129.354 44.1992 129.82 43.6475 129.844L31.5781 130.358C31.0263 130.382 30.5593 129.954 30.5349 129.402L29.2287 99.7991C29.2032 99.2207 28.6933 98.784 28.1179 98.8479L5.38964 101.369C4.60016 101.457 4.02737 100.633 4.38473 99.9242L17.9324 73.0486C18.2933 72.3325 17.7056 71.5031 16.9098 71.6057L10.9431 72.3749C10.1516 72.477 9.56412 71.6562 9.9164 70.9406L20.4285 49.5859C20.7849 48.8621 20.1802 48.035 19.3819 48.1543L14.7368 48.8483Z" fill="#BBC2FF"/>
<path id="Polygon 1" d="M16.2915 76.2918L3.55363 101.573L15.5729 100.24L23.0087 75.4976L16.2915 76.2918Z" fill="#E2DBFF"/>
<path id="Polygon 2" d="M18.5844 53.0345L9.09289 72.6133L18.7815 71.3642L24.2036 52.2024L18.5844 53.0345Z" fill="#E2DBFF"/>
<path id="Polygon 3" d="M31.9107 0.874023L13.0256 49.1037L20.0671 48.0515L31.9107 0.874023Z" fill="#E2DBFF"/>
</g>
</svg>
