<svg width="80" height="135" viewBox="0 0 80 135" fill="none" xmlns="http://www.w3.org/2000/svg">
<g id="Sapin">
<path id="Union" fill-rule="evenodd" clip-rule="evenodd" d="M61.9843 51.5916C62.7343 51.7632 63.3901 51.059 63.1654 50.3235L49.1908 4.60146C48.9374 3.77221 47.8197 3.63835 47.3752 4.38401L22.8697 45.4974C22.4755 46.1587 22.9442 46.9976 23.7137 47.008L28.4115 47.0715C29.2188 47.0824 29.6798 47.9958 29.2095 48.6525L15.3327 68.0274C14.8676 68.6767 15.3127 69.5811 16.1105 69.6079L22.1247 69.8102C22.9268 69.8371 23.3707 70.75 22.8971 71.3984L5.11908 95.7311C4.65013 96.3729 5.08025 97.2777 5.87368 97.3185L28.7158 98.4923C29.2941 98.522 29.7256 99.0349 29.6559 99.6097L26.0885 129.026C26.022 129.574 26.4126 130.072 26.961 130.137L38.9556 131.574C39.504 131.64 40.0024 131.248 40.0689 130.7L43.6363 101.284C43.706 100.709 44.2479 100.313 44.8167 100.421L67.2854 104.674C68.0659 104.821 68.7 104.044 68.3979 103.31L56.9464 75.4763C56.6413 74.7347 57.2908 73.9528 58.0763 74.116L63.9667 75.3395C64.7481 75.5018 65.3967 74.7284 65.1002 73.9879L56.2528 51.8914C55.9529 51.1425 56.6191 50.3641 57.4059 50.5441L61.9843 51.5916Z" fill="#CCCDFF"/>
<path id="Polygon 1" d="M58.3343 78.8357L69.1005 105.017L57.2184 102.769L51.6976 77.5298L58.3343 78.8357Z" fill="#E9E6FF"/>
<path id="Polygon 2" d="M57.8277 55.4713L65.7933 75.7189L56.2287 73.7322L52.2887 54.2117L57.8277 55.4713Z" fill="#E9E6FF"/>
<path id="Polygon 3" d="M48.5315 2.44409L63.6709 51.9773L56.7305 50.3895L48.5315 2.44409Z" fill="#E9E6FF"/>
</g>
</svg>
