<svg width="59" height="106" viewBox="0 0 59 106" fill="none" xmlns="http://www.w3.org/2000/svg">
<g id="Sapin">
<path id="Union" fill-rule="evenodd" clip-rule="evenodd" d="M13.136 39.5714C12.3789 39.7077 11.7566 38.9737 12.0155 38.2495L24.5598 3.15964C24.8517 2.34313 25.9744 2.2616 26.3835 3.0272L43.967 35.9293C44.3298 36.6083 43.8224 37.4243 43.0533 37.3988L40.0549 37.2993C39.2479 37.2725 38.7448 38.1633 39.184 38.8413L49.0846 54.1248C49.5188 54.7951 49.032 55.6777 48.2338 55.6673L44.2059 55.6145C43.4034 55.604 42.9174 56.4952 43.3603 57.1649L56.1788 76.5489C56.6173 77.212 56.1454 78.0957 55.3509 78.0994L37.7296 78.1811C37.1506 78.1837 36.6955 78.676 36.7383 79.2534L38.4514 102.367C38.4922 102.918 38.0787 103.397 37.5279 103.437L28.3385 104.104C27.7876 104.144 27.308 103.73 27.2672 103.179L25.5541 80.0655C25.5113 79.4882 24.9886 79.0669 24.4154 79.1479L6.97068 81.6127C6.18417 81.7238 5.58703 80.9177 5.92305 80.1984L15.7465 59.1702C16.0859 58.4436 15.4737 57.6322 14.6813 57.7586L10.7043 58.3926C9.91622 58.5182 9.30445 57.7154 9.63519 56.9895L17.1765 40.4394C17.5111 39.7053 16.882 38.8966 16.0876 39.0397L13.136 39.5714Z" fill="#C4C3FE"/>
<path id="Union_2" fill-rule="evenodd" clip-rule="evenodd" d="M11.4333 39.8777L25.3191 1.03516L22.594 37.8674L11.4333 39.8777ZM15.9518 42.8743L8.86199 58.6859L24.2278 56.2362L24.8585 41.2822L15.9518 42.8743ZM14.68 61.4429L5.14157 81.8708L24.214 79.1776L25.3367 59.8587L14.68 61.4429Z" fill="#E9DBFF"/>
<path id="Polygon 1" d="M14.68 61.443L5.14154 81.8708L14.6777 80.5242L20.0083 60.6509L14.68 61.443Z" fill="#E9DBFF"/>
<path id="Polygon 2" d="M15.9518 42.8745L8.86199 58.686L16.5449 57.4612L20.4052 42.0784L15.9518 42.8745Z" fill="#E9DBFF"/>
<path id="Polygon 3" d="M25.3191 1.03516L11.4333 39.8777L17.0136 38.8726L25.3191 1.03516Z" fill="#E9DBFF"/>
</g>
</svg>
