<?xml version="1.0" encoding="utf-8" ?>
<svg xmlns="http://www.w3.org/2000/svg" xmlns:xlink="http://www.w3.org/1999/xlink" width="4900" height="4900">
	<path fill="#F3524B" transform="scale(9.57031 9.57031)" d="M126.975 94.2483C135.213 94.5371 121.833 102.694 120.895 103.317C119.367 103.457 118.09 101.884 118.55 100.432C119.343 97.9317 124.805 95.4122 126.975 94.2483Z"/>
	<path fill="#F3524B" transform="scale(9.57031 9.57031)" d="M119.781 124.655C121.288 124.65 132.799 129.42 128.088 133.812C126.523 133.646 114.792 128.395 119.781 124.655Z"/>
	<path fill="#F3524B" transform="scale(9.57031 9.57031)" d="M68.9911 94.2483C71.8769 94.6062 82.4561 99.9504 76.9177 103.317C74.4989 102.862 63.67 97.1084 68.9911 94.2483Z"/>
	<path fill="#F3524B" transform="scale(9.57031 9.57031)" d="M405.664 104.75C406.885 104.756 424.371 104.098 416.146 108.888C414.339 108.925 402.97 110.337 404.007 106.42C404.29 105.352 404.779 105.176 405.664 104.75Z"/>
	<path fill="#F3524B" transform="scale(9.57031 9.57031)" d="M433.419 104.75C436.04 104.74 442.401 104.305 444.6 104.808C446.625 105.271 446.6 108.153 444.74 108.888C442.812 108.908 427.444 110.226 433.419 104.75Z"/>
	<path fill="#F3524B" transform="scale(9.57031 9.57031)" d="M76.0414 124.655C77.6084 124.352 78.6102 125.356 78.6751 126.855C77.7017 129.232 72.1199 132.411 69.9017 133.812L69.244 133.955C62.373 131.944 74.172 125.539 76.0414 124.655Z"/>
	<path fill="#F3524B" transform="scale(9.57031 9.57031)" d="M424.939 113.515C429.484 113.661 428.253 126.005 425.928 127.314C420.076 125.512 422.815 114.345 424.939 113.515Z"/>
	<path fill="#F3524B" transform="scale(9.57031 9.57031)" d="M97.9347 76.2511C104.535 75.8975 101.33 89.0764 100.533 90.2264C94.2585 91.0721 97.1993 77.4412 97.9347 76.2511Z"/>
	<path fill="#F3524B" transform="scale(9.57031 9.57031)" d="M424.939 83.6135C429.288 84.4221 427.886 96.8052 425.928 99.0353C421.499 98.9463 421.723 86.2673 424.939 83.6135Z"/>
	<path fill="#494445" transform="scale(9.57031 9.57031)" d="M157.186 108.888C162.848 106.474 169.358 111.507 170.822 116.953C171.889 120.92 171.267 132.76 171.253 137.51C173.923 137.767 176.714 137.555 179.398 137.539L243.451 137.51C243.441 131.96 242.729 121.481 244.119 116.697C247.573 104.809 265.122 105.883 267.983 117.76C268.997 121.971 268.415 132.759 268.409 137.51L341.31 137.51C341.289 132.47 340.628 122.179 341.795 117.648C344.764 106.113 362.137 104.728 365.488 116.655C366.858 121.531 366.161 132.114 366.143 137.51L398.555 137.5C421.224 137.488 428.394 137.522 428.316 161.423L428.316 372.718C428.318 387.113 431.522 405.745 412.582 409.492C408.323 410.157 399.489 409.499 394.829 409.494L113.813 409.497C108.813 409.496 103.583 409.806 98.6092 409.401C81.2192 407.985 82.5845 391.052 82.6058 379.056L82.6032 162.174C82.664 135.474 93.9458 137.506 114.951 137.501L146.05 137.51C146.535 127.133 142.329 110.022 157.186 108.888Z"/>
	<path fill="#F9FAFA" transform="scale(9.57031 9.57031)" d="M341.31 159.168C341.461 160.647 341.183 162.266 341.133 163.754C340.582 180.05 367.026 186.196 366.143 159.899C368.422 163.199 369.718 165.942 369.654 170.066C368.639 183.882 351.56 189.807 341.852 180.532C335.923 174.868 335.521 165.069 341.31 159.168Z"/>
	<path fill="#F9FAFA" transform="scale(9.57031 9.57031)" d="M171.253 159.899C173.037 161.28 174.261 164.73 174.668 166.894C178.44 186.954 146.447 192.385 142.299 171.349C141.942 166.657 143.247 163.526 146.05 159.899C145.927 161.201 145.791 162.518 145.753 163.825C145.279 180.012 172.153 185.309 171.253 159.899Z"/>
	<path fill="#F9FAFA" transform="scale(9.57031 9.57031)" d="M268.409 159.168C271.206 163.162 272.28 166.458 272.241 171.349C270.68 180.226 263.591 185.887 254.476 185.402C242.883 184.786 233.77 168.168 243.451 159.899C243.635 165.045 243.177 169.63 247.121 173.681C252.055 178.748 259.853 178.729 264.768 173.627C268.638 169.61 268.532 164.351 268.409 159.168Z"/>
	<path fill="#FDADAA" transform="scale(9.57031 9.57031)" d="M398.636 199.964L424.939 199.964L424.939 225.808L407.63 225.788C404.663 225.785 401.589 225.612 398.636 225.808C398.191 223.669 398.603 220.759 398.609 218.534L398.636 199.964Z"/>
	<path fill="#F9FAFA" transform="scale(9.57031 9.57031)" d="M254.393 112.034C266.07 111.177 264.869 122.306 264.875 130.627L264.874 147.179C264.874 157.007 268.429 171.247 256.841 174.237C253.159 174.546 248.74 172.511 247.45 168.844C246.385 165.815 246.735 128.029 247.101 122.488C247.458 117.092 248.85 113.896 254.393 112.034Z"/>
	<path fill="#F9FAFA" transform="scale(9.57031 9.57031)" d="M352.216 112.034C367.798 110.565 362.72 135.773 362.723 145.985C362.726 155.716 366.238 170.655 355.582 174.237C351.571 174.754 346.656 173.608 345.294 169.226C344.326 166.111 344.614 126.94 345.031 121.471C345.411 116.487 347.094 113.493 352.216 112.034Z"/>
	<path fill="#F9FAFA" transform="scale(9.57031 9.57031)" d="M157.186 112.034C161.359 111.538 165.528 113.118 167.049 117.395C168.325 120.982 168.21 156.923 167.79 164.443C167.482 169.955 165.332 172.312 160.036 174.237C156.2 174.516 151.065 171.968 149.882 168.131C148.919 165.007 149.139 126.633 149.65 121.348C150.123 116.459 152.185 113.29 157.186 112.034Z"/>
	<path fill="#F9FAFA" transform="scale(9.57031 9.57031)" d="M398.636 228.001C401.843 228.225 405.144 228.046 408.359 228.027L424.939 228.001L424.939 340.136C416.179 340.28 407.398 340.145 398.636 340.136C398.267 327.711 398.631 315.151 398.632 302.713L398.636 228.001Z"/>
	<path fill="#F9FAFA" transform="scale(9.57031 9.57031)" d="M424.939 345.807L424.951 376.453C424.948 399.211 427.138 406.254 399.666 406.167L174.049 406.151C151.229 406.153 128.38 406.411 105.564 406.15C95.5514 406.035 88.252 403.6 86.2675 392.822C86.3061 391.919 86.3621 391.056 86.5155 390.164C88.6166 389.584 98.0212 390.015 100.781 390.018L357.945 390.026C364.619 390.024 374.31 390.673 380.67 390.028C388.815 380.027 403.252 366.917 412.649 357.789C416.726 353.829 420.457 349.303 424.939 345.807Z"/>
	<path fill="#FDADAA" transform="scale(9.57031 9.57031)" d="M395.273 199.964L398.636 199.964L398.609 218.534C398.603 220.759 398.191 223.669 398.636 225.808C397.536 226.133 396.411 226.168 395.273 226.25C391.091 226.237 384.502 225.795 380.67 226.25L382.176 226.454C377.02 226.689 378.191 227.691 382.018 227.582C377.142 227.892 372.208 227.719 367.322 227.709L248.361 227.685C244.569 227.681 240.056 227.236 236.364 228.001C221.876 227.978 207.363 228.218 192.878 228.001C183.911 229.017 166.518 228.185 157.186 228.001C151.101 228.357 144.783 228.006 138.677 228.005L99.6221 228.001L99.8527 227.723L101.303 227.664C103.211 226.251 100.931 226.516 99.6221 226.25C96.843 225.786 89.4772 226.237 86.2675 226.25C86.0615 217.507 86.2638 208.713 86.2675 199.964L395.273 199.964Z"/>
	<path fill="#494445" transform="scale(9.57031 9.57031)" d="M143.894 226.25L226.541 226.243C230.053 226.239 233.627 226.09 237.13 226.25C234.494 226.513 231.755 226.295 229.103 226.273L215.555 226.245C209.62 226.242 179.375 226.232 177.212 227.235C176.812 227.421 176.457 227.401 176.025 227.405L175.801 227.622C179.317 227.768 190.46 227.081 192.878 228.001C183.911 229.017 166.518 228.185 157.186 228.001C161.053 227.151 170.47 227.702 175.07 227.683C172.075 227.487 169.119 226.748 166.123 226.663C159.582 226.477 150.078 226.875 143.894 226.25Z"/>
	<path fill="#9D6E6E" transform="scale(9.57031 9.57031)" d="M395.273 199.964L398.636 199.964L398.609 218.534C398.603 220.759 398.191 223.669 398.636 225.808C397.536 226.133 396.411 226.168 395.273 226.25C394.978 217.547 395.146 208.674 395.273 199.964Z"/>
	<defs>
		<linearGradient id="gradient_0" gradientUnits="userSpaceOnUse" x1="137.23935" y1="234.12656" x2="139.71555" y2="220.86502">
			<stop offset="0" stop-color="black"/>
			<stop offset="1" stop-color="#2A2829"/>
		</linearGradient>
	</defs>
	<path fill="url(#gradient_0)" transform="scale(9.57031 9.57031)" d="M99.6221 226.25L129.152 226.243C134.039 226.242 139.016 226.04 143.894 226.25C150.078 226.875 159.582 226.477 166.123 226.663C169.119 226.748 172.075 227.487 175.07 227.683C170.47 227.702 161.053 227.151 157.186 228.001C151.101 228.357 144.783 228.006 138.677 228.005L99.6221 228.001L99.8527 227.723L101.303 227.664C103.211 226.251 100.931 226.516 99.6221 226.25Z"/>
	<path fill="#040303" transform="scale(9.57031 9.57031)" d="M237.13 226.25L380.67 226.25L382.176 226.454C377.02 226.689 378.191 227.691 382.018 227.582C377.142 227.892 372.208 227.719 367.322 227.709L248.361 227.685C244.569 227.681 240.056 227.236 236.364 228.001C221.876 227.978 207.363 228.218 192.878 228.001C190.46 227.081 179.317 227.768 175.801 227.622L176.025 227.405C176.457 227.401 176.812 227.421 177.212 227.235C179.375 226.232 209.62 226.242 215.555 226.245L229.103 226.273C231.755 226.295 234.494 226.513 237.13 226.25Z"/>
	<path fill="#F3524B" transform="scale(9.57031 9.57031)" d="M268.409 140.998L341.31 140.998L341.31 154.178C331.894 161.77 331.701 175.622 340.784 183.524C359.626 199.916 385.312 170.823 366.143 154.872C365.635 150.424 366.13 145.493 366.143 140.998L397.507 140.982C422.959 140.971 424.932 140.57 424.948 169.295L424.939 197.035C416.2 197.291 407.383 197.044 398.636 197.035L86.2675 197.035L86.2576 179.529C86.255 173.816 85.6287 156.097 86.78 151.782C90.3638 138.349 106.586 140.988 117.113 140.986L146.05 140.998C145.929 145.61 146.048 150.256 146.05 154.872C132.108 167.813 140.711 189.452 160.108 188.142C177.046 186.998 184.299 165.563 171.253 154.872L171.253 140.998L173.598 140.998L243.451 140.998C243.449 145.387 243.601 149.791 243.451 154.178C230.231 168.359 238.011 188.355 255.506 188.365C274.344 188.376 281.503 167.452 268.409 154.872C268.193 150.288 268.383 145.591 268.409 140.998Z"/>
	<path fill="#F9FAFA" transform="scale(9.57031 9.57031)" d="M236.364 228.001L378.038 228.006C383.749 228.011 389.581 228.426 395.273 228.001L398.636 228.001L398.632 302.713C398.631 315.151 398.267 327.711 398.636 340.136C407.398 340.145 416.179 340.28 424.939 340.136L424.939 345.807C420.457 349.303 416.726 353.829 412.649 357.789C403.252 366.917 388.815 380.027 380.67 390.028C374.31 390.673 364.619 390.024 357.945 390.026L100.781 390.018C98.0212 390.015 88.6166 389.584 86.5155 390.164C86.3621 391.056 86.3061 391.919 86.2675 392.822C85.8863 391.028 86.2451 388.721 86.2675 386.866L86.2675 228.001C90.7174 228.019 95.173 228.083 99.6221 228.001L138.677 228.005C144.783 228.006 151.101 228.357 157.186 228.001C166.518 228.185 183.911 229.017 192.878 228.001C207.363 228.218 221.876 227.978 236.364 228.001Z"/>
	<path fill="#FED460" transform="scale(9.57031 9.57031)" d="M237.13 288.168C224.584 268.379 212.291 287.308 206.243 286.208C202.646 285.554 199.404 281.554 200.325 277.832C201.168 274.425 205.756 271.832 208.617 270.256C226.323 260.501 250.924 269.89 250.973 291.403C251.204 294.53 250.673 297.129 250.452 300.196C246.839 315.324 233.85 325.135 224.436 336.586L242.134 336.61C245.244 336.587 254.951 334.934 256.729 338.384C257.399 339.684 256.91 347.462 256.223 348.777C254.822 351.459 245.723 350.15 243.086 350.149L207.483 350.139C205.544 350.141 203.582 350.318 201.647 350.226C189.573 349.651 207.259 334.878 209.031 333.026C220.096 321.466 227.738 313.62 236.364 300.196C236.95 298.012 237.537 295.829 238.069 293.632C237.493 292.018 237.258 289.887 237.13 288.168Z"/>
	<path fill="#1B1108" transform="scale(9.57031 9.57031)" d="M238.069 288.168C238.965 289.583 239.239 291.968 239.131 293.632C238.743 292.203 238.262 292.035 238.069 293.632C237.493 292.018 237.258 289.887 237.13 288.168L237.171 288.155C237.577 288.545 237.517 289.105 237.591 289.652C237.777 289.188 237.806 288.712 237.847 288.222L238.069 288.168Z"/>
	<path fill="#040303" transform="scale(9.57031 9.57031)" d="M238.069 293.632C238.262 292.035 238.743 292.203 239.131 293.632C238.819 296.186 238.369 298.821 237.13 301.115C236.842 299.86 237.632 298.879 237.773 297.671L237.464 297.673C237.18 298.515 236.922 299.359 236.673 300.211L236.364 300.196C236.95 298.012 237.537 295.829 238.069 293.632Z"/>
	<path fill="#040303" transform="scale(9.57031 9.57031)" d="M250.452 289.908C250.544 290.465 250.576 291.052 250.848 291.55L250.673 290.144L250.973 291.403C251.204 294.53 250.673 297.129 250.452 300.196L248.887 300.196C249.76 296.806 249.989 293.363 250.452 289.908Z"/>
	<path fill="#494445" transform="scale(9.57031 9.57031)" d="M237.13 288.168C224.584 268.379 212.291 287.308 206.243 286.208C202.646 285.554 199.404 281.554 200.325 277.832C201.168 274.425 205.756 271.832 208.617 270.256C226.323 260.501 250.924 269.89 250.973 291.403L250.673 290.144L250.848 291.55C250.576 291.052 250.544 290.465 250.452 289.908C249.292 288.918 248.101 283.731 247.3 282.021C239.503 265.374 212.525 263.43 202.693 277.2C201.288 279.169 202.472 283.041 204.505 284.136C207.959 285.996 211.691 281.941 214.402 280.277C222.998 275.001 235.073 277.343 237.977 287.826L238.069 288.168L237.847 288.222C237.806 288.712 237.777 289.188 237.591 289.652C237.517 289.105 237.577 288.545 237.171 288.155L237.13 288.168Z"/>
	<defs>
		<linearGradient id="gradient_1" gradientUnits="userSpaceOnUse" x1="249.49245" y1="353.90143" x2="216.61406" y2="315.28033">
			<stop offset="0" stop-color="black"/>
			<stop offset="1" stop-color="#534F4A"/>
		</linearGradient>
	</defs>
	<path fill="url(#gradient_1)" transform="scale(9.57031 9.57031)" d="M236.364 300.196L236.673 300.211C236.922 299.359 237.18 298.515 237.464 297.673L237.773 297.671C237.632 298.879 236.842 299.86 237.13 301.115C234.503 314.463 203.353 337.034 199.448 345.934C197.757 349.789 208.026 348.506 209.849 348.506L224.294 348.504C234.555 348.5 244.974 348.889 255.216 348.497C255.46 345.675 255.991 341.171 255.057 338.512C252.617 336.833 227.071 339.098 221.262 338.03L221.094 337.728C222.5 334.831 225.903 332.064 228.169 329.722C236.68 320.922 244.726 311.928 248.887 300.196L250.452 300.196C246.839 315.324 233.85 325.135 224.436 336.586L242.134 336.61C245.244 336.587 254.951 334.934 256.729 338.384C257.399 339.684 256.91 347.462 256.223 348.777C254.822 351.459 245.723 350.15 243.086 350.149L207.483 350.139C205.544 350.141 203.582 350.318 201.647 350.226C189.573 349.651 207.259 334.878 209.031 333.026C220.096 321.466 227.738 313.62 236.364 300.196Z"/>
	<path fill="#41573E" transform="scale(9.57031 9.57031)" d="M123.308 293.066L123.129 292.843C121.313 290.613 111.583 281.051 111.555 279.01C113.268 277.869 118.361 278.836 120.748 278.282C135.519 274.848 122.799 268.703 122.688 265.949L122.929 265.486C137.416 263.544 132.29 255.958 138.105 252.915C139.68 253.665 142.553 260.801 144.76 262.704C147.461 265.034 152.716 264.608 153.616 266.05C153.418 267.767 149.684 271.149 148.528 272.727L148.747 273.008C155.677 281.755 162.792 276.409 165.607 278.635C165.983 281.537 155.764 290.195 153.704 293.066C157.789 295.217 161.907 296.834 166.564 296.971C177.837 297.302 166.428 300.96 166.717 305.086C166.998 309.097 174.665 309.698 173 312.934C171.811 313.776 152.19 313.222 149.447 313.225C146.196 326.347 131.766 325.636 128.088 313.225C123.38 313.231 118.499 313.519 113.812 313.225L110.319 313.225C109.3 313.28 103.323 314.143 103.812 312.017C104.582 308.669 112.932 308.511 110.309 303.358C108.083 298.986 100.637 296.882 110.322 297.11C115.135 297.224 119.237 295.505 123.308 293.066Z"/>
	<path fill="#1F3F1C" transform="scale(9.57031 9.57031)" d="M108.906 311.492L128.088 311.492L128.218 311.739C127.102 312.546 122.377 311.743 121.829 312.572C123.649 312.649 125.473 312.705 127.29 312.836C125.538 313.083 114.025 313.096 113.812 313.225L110.319 313.225C109.136 312.876 109.118 312.989 108.955 311.827L108.906 311.492Z"/>
	<path fill="#F3524B" transform="scale(9.57031 9.57031)" d="M137.286 303.782C149.548 303.017 150.484 317.345 139.813 320.198C129.29 321.097 126.359 306.665 137.286 303.782Z"/>
	<path fill="#4EDD4A" transform="scale(9.57031 9.57031)" d="M137.286 257.676C141.255 261.94 143.632 266.125 149.447 268.093C147.852 269.483 146.952 270.821 146.05 272.727C148.694 278.865 154.87 280.537 160.875 281.323C158.799 283.736 143.331 298.745 143.322 300.154L143.731 300.712C146.169 300.992 149.418 296.228 151.722 295.072C157.176 297.326 160.8 298.749 166.686 299.553C163.137 304.838 163.433 308.328 169.36 311.492C162.726 311.469 156.079 311.602 149.447 311.492C149.008 305.259 145.49 302.656 139.813 301.115C139.795 297.171 140.318 281.319 139.434 278.657L139.08 278.34C135.578 278.969 137.39 297.11 137.286 301.115C131.372 303.015 129.441 305.338 128.407 311.179L128.088 311.492L108.906 311.492L108.982 311.134C113.814 306.723 114.986 305.025 110.319 299.553C115.963 299.008 120.481 297.36 125.606 295.072C126.992 296.287 129.034 299.038 130.926 299.112C134.692 299.26 125.452 291.751 124.525 290.853C121.528 287.951 118.771 284.69 116.309 281.323C123.457 281.008 137.334 275.812 126.975 268.093C132.165 265.904 135.113 262.88 137.286 257.676Z"/>
	<path fill="#FED460" transform="scale(9.57031 9.57031)" d="M312.618 329.818C319.029 315.43 305.125 302.394 290.518 308.526C287.69 309.713 285.227 312.027 281.987 311.955C271.136 311.713 276.92 297.602 278.267 292.32L281.757 278.57C284.955 266.05 284.538 266.455 296.501 266.448L310.349 266.452C313.162 266.452 322.607 265.013 324.41 267.815C325.758 269.911 326.515 279.096 323.509 280.551C321.054 280.912 318.369 280.607 315.882 280.588L302.104 280.551C299.959 280.78 297.784 280.627 295.632 280.551C294.502 284.912 293.423 289.293 292.212 293.632C322.377 290.847 339.557 319.795 321.15 341.343C310.499 353.811 290.016 354.988 277.71 344.338C272.393 339.737 275.021 331.775 282.026 331.992C288.197 332.183 296.667 344.863 309.532 333.534C310.76 332.454 311.461 330.845 312.618 329.818Z"/>
	<path fill="#1B1108" transform="scale(9.57031 9.57031)" d="M294.242 279.771L294.556 279.211C298.084 278.486 312.201 279.008 316.259 279.101C311.108 279.924 305.314 278.198 300.187 279.491L300.124 280.551C298.417 280.534 296.044 280.864 294.448 280.335L294.242 279.771Z"/>
	<path fill="#040303" transform="scale(9.57031 9.57031)" d="M316.259 279.101L322.217 279.101L322.243 279.351C320.91 279.7 317.538 278.959 316.858 280.028L317.02 280.256C318.515 280.247 322.344 279.773 323.509 280.551C321.054 280.912 318.369 280.607 315.882 280.588L302.104 280.551L300.124 280.551L300.187 279.491C305.314 278.198 311.108 279.924 316.259 279.101Z"/>
	<defs>
		<linearGradient id="gradient_2" gradientUnits="userSpaceOnUse" x1="280.98032" y1="274.39389" x2="328.47675" y2="308.80151">
			<stop offset="0" stop-color="#1F1C1D"/>
			<stop offset="1" stop-color="#4D4544"/>
		</linearGradient>
	</defs>
	<path fill="url(#gradient_2)" transform="scale(9.57031 9.57031)" d="M312.618 329.818C319.029 315.43 305.125 302.394 290.518 308.526C287.69 309.713 285.227 312.027 281.987 311.955C271.136 311.713 276.92 297.602 278.267 292.32L281.757 278.57C284.955 266.05 284.538 266.455 296.501 266.448L310.349 266.452C313.162 266.452 322.607 265.013 324.41 267.815C325.758 269.911 326.515 279.096 323.509 280.551C322.344 279.773 318.515 280.247 317.02 280.256L316.858 280.028C317.538 278.959 320.91 279.7 322.243 279.351L322.217 279.101C324.331 277.453 324.202 271.063 322.883 269.206C321.919 267.85 289.143 267.116 286.891 268.485C284.9 271.721 277.162 301.474 276.789 305.845C279.877 313.171 284.771 309.079 290.079 306.856C312.435 297.493 324.727 326.415 309.731 335.618C310.484 333.29 314.191 331.34 314.466 328.507L314.053 328.486C313.506 328.9 313.08 329.317 312.618 329.818Z"/>
	<path fill="#494445" transform="scale(9.57031 9.57031)" d="M294.242 279.771L294.448 280.335C296.044 280.864 298.417 280.534 300.124 280.551L302.104 280.551C299.959 280.78 297.784 280.627 295.632 280.551C294.502 284.912 293.423 289.293 292.212 293.632C322.377 290.847 339.557 319.795 321.15 341.343C310.499 353.811 290.016 354.988 277.71 344.338C272.393 339.737 275.021 331.775 282.026 331.992C288.197 332.183 296.667 344.863 309.532 333.534C310.76 332.454 311.461 330.845 312.618 329.818C313.08 329.317 313.506 328.9 314.053 328.486L314.466 328.507C314.191 331.34 310.484 333.29 309.731 335.618C298.325 346.947 283.952 332.591 280.762 333.564C278.099 334.375 276.061 337.761 276.935 340.477C280.516 351.607 313.463 355.742 324.023 333.61C334.337 311.996 312.824 288.254 289.139 297.028C290.819 291.479 291.934 285.039 294.242 279.771Z"/>
	<path fill="#939293" transform="scale(9.57031 9.57031)" d="M395.273 228.001L398.636 228.001L398.632 302.713C398.631 315.151 398.267 327.711 398.636 340.136C407.398 340.145 416.179 340.28 424.939 340.136L424.939 345.807C420.457 349.303 416.726 353.829 412.649 357.789C403.252 366.917 388.815 380.027 380.67 390.028C374.31 390.673 364.619 390.024 357.945 390.026L100.781 390.018C98.0212 390.015 88.6166 389.584 86.5155 390.164C86.3621 391.056 86.3061 391.919 86.2675 392.822C85.8863 391.028 86.2451 388.721 86.2675 386.866C86.8952 387.147 130.743 386.864 137.17 386.863L377.322 386.866L377.322 340.136L395.273 340.136L395.273 228.001Z"/>
	<path fill="#FDADAA" transform="scale(9.57031 9.57031)" d="M380.67 343.484L422.125 343.484C419.659 345.551 417.399 347.979 415.11 350.241L401.839 363.551L388.816 376.666C386.199 379.274 383.598 382.005 380.67 384.267L380.67 343.484Z"/>
</svg>
