<svg width="457" height="259" viewBox="0 0 457 259" fill="none" xmlns="http://www.w3.org/2000/svg">
<g filter="url(#filter0_f_205_20284)">
<g filter="url(#filter1_i_205_20284)">
<path fill-rule="evenodd" clip-rule="evenodd" d="M275.528 115.506C271.187 116.45 266.664 116.948 262.017 116.948C229.118 116.948 202.448 91.9547 202.448 61.1235C202.448 30.2924 229.118 5.29883 262.017 5.29883C288.462 5.29883 310.881 21.4468 318.661 43.7946C326.105 37.8323 338.222 33.9522 351.905 33.9522C374.539 33.9522 392.888 44.569 392.888 57.6654C392.888 58.8741 392.731 60.0617 392.43 61.2218C425.804 62.3908 452 73.8442 452 87.8008C452 102.534 422.806 114.478 386.794 114.478C372.743 114.478 359.731 112.66 349.086 109.568C343.21 123.991 328.271 134.239 310.77 134.239C295.783 134.239 282.675 126.723 275.528 115.506Z" fill="url(#paint0_linear_205_20284)"/>
</g>
<g filter="url(#filter2_i_205_20284)">
<path fill-rule="evenodd" clip-rule="evenodd" d="M155.829 152.128C156.23 149.512 156.438 146.839 156.438 144.12C156.438 113.288 129.768 88.2949 96.8682 88.2949C63.9688 88.2949 37.2986 113.288 37.2986 144.12C37.2986 144.407 37.3009 144.693 37.3056 144.979C18.8391 148.698 5.00006 164.043 5.00006 182.406C5.00006 203.552 23.3486 220.693 45.9827 220.693C52.1067 220.693 57.9171 219.438 63.1351 217.189C69.9322 224.843 83.7145 230.08 99.6105 230.08C122.245 230.08 140.593 219.463 140.593 206.367C140.593 205.545 140.521 204.732 140.38 203.932C147.037 204.869 154.182 205.379 161.618 205.379C197.63 205.379 226.824 193.435 226.824 178.701C226.824 163.968 197.63 152.024 161.618 152.024C159.667 152.024 157.736 152.059 155.829 152.128Z" fill="url(#paint1_linear_205_20284)"/>
</g>
<g filter="url(#filter3_i_205_20284)">
<ellipse cx="235.5" cy="230.299" rx="33.5" ry="23" fill="url(#paint2_linear_205_20284)"/>
</g>
</g>
<defs>
<filter id="filter0_f_205_20284" x="6.10352e-05" y="0.298828" width="457" height="258" filterUnits="userSpaceOnUse" color-interpolation-filters="sRGB">
<feFlood flood-opacity="0" result="BackgroundImageFix"/>
<feBlend mode="normal" in="SourceGraphic" in2="BackgroundImageFix" result="shape"/>
<feGaussianBlur stdDeviation="2.5" result="effect1_foregroundBlur_205_20284"/>
</filter>
<filter id="filter1_i_205_20284" x="195.448" y="-2.70117" width="256.552" height="136.94" filterUnits="userSpaceOnUse" color-interpolation-filters="sRGB">
<feFlood flood-opacity="0" result="BackgroundImageFix"/>
<feBlend mode="normal" in="SourceGraphic" in2="BackgroundImageFix" result="shape"/>
<feColorMatrix in="SourceAlpha" type="matrix" values="0 0 0 0 0 0 0 0 0 0 0 0 0 0 0 0 0 0 127 0" result="hardAlpha"/>
<feOffset dx="-7" dy="-10"/>
<feGaussianBlur stdDeviation="4"/>
<feComposite in2="hardAlpha" operator="arithmetic" k2="-1" k3="1"/>
<feColorMatrix type="matrix" values="0 0 0 0 0.188235 0 0 0 0 0.145098 0 0 0 0 0.443137 0 0 0 0.24 0"/>
<feBlend mode="normal" in2="shape" result="effect1_innerShadow_205_20284"/>
</filter>
<filter id="filter2_i_205_20284" x="-1.99994" y="80.2949" width="228.824" height="149.785" filterUnits="userSpaceOnUse" color-interpolation-filters="sRGB">
<feFlood flood-opacity="0" result="BackgroundImageFix"/>
<feBlend mode="normal" in="SourceGraphic" in2="BackgroundImageFix" result="shape"/>
<feColorMatrix in="SourceAlpha" type="matrix" values="0 0 0 0 0 0 0 0 0 0 0 0 0 0 0 0 0 0 127 0" result="hardAlpha"/>
<feOffset dx="-7" dy="-10"/>
<feGaussianBlur stdDeviation="4"/>
<feComposite in2="hardAlpha" operator="arithmetic" k2="-1" k3="1"/>
<feColorMatrix type="matrix" values="0 0 0 0 0.188235 0 0 0 0 0.145098 0 0 0 0 0.443137 0 0 0 0.24 0"/>
<feBlend mode="normal" in2="shape" result="effect1_innerShadow_205_20284"/>
</filter>
<filter id="filter3_i_205_20284" x="195" y="199.299" width="74" height="54" filterUnits="userSpaceOnUse" color-interpolation-filters="sRGB">
<feFlood flood-opacity="0" result="BackgroundImageFix"/>
<feBlend mode="normal" in="SourceGraphic" in2="BackgroundImageFix" result="shape"/>
<feColorMatrix in="SourceAlpha" type="matrix" values="0 0 0 0 0 0 0 0 0 0 0 0 0 0 0 0 0 0 127 0" result="hardAlpha"/>
<feOffset dx="-7" dy="-10"/>
<feGaussianBlur stdDeviation="4"/>
<feComposite in2="hardAlpha" operator="arithmetic" k2="-1" k3="1"/>
<feColorMatrix type="matrix" values="0 0 0 0 0.188235 0 0 0 0 0.145098 0 0 0 0 0.443137 0 0 0 0.24 0"/>
<feBlend mode="normal" in2="shape" result="effect1_innerShadow_205_20284"/>
</filter>
<linearGradient id="paint0_linear_205_20284" x1="249" y1="69.2988" x2="405.5" y2="134.299" gradientUnits="userSpaceOnUse">
<stop stop-color="#AA9AF5"/>
<stop offset="1" stop-color="#7065B6"/>
</linearGradient>
<linearGradient id="paint1_linear_205_20284" x1="12.5001" y1="98.2988" x2="276.757" y2="152.669" gradientUnits="userSpaceOnUse">
<stop stop-color="#AA9AF5"/>
<stop offset="1" stop-color="#7065B6"/>
</linearGradient>
<linearGradient id="paint2_linear_205_20284" x1="235.5" y1="207.299" x2="235.5" y2="253.299" gradientUnits="userSpaceOnUse">
<stop stop-color="#8E7FDA"/>
<stop offset="1" stop-color="#7065B6"/>
</linearGradient>
</defs>
</svg>
