<svg width="1920" height="812" viewBox="0 0 1920 812" fill="none" xmlns="http://www.w3.org/2000/svg">
<g filter="url(#filter0_f_128_14215)">
<path fill-rule="evenodd" clip-rule="evenodd" d="M146.51 298.415C147.244 298.52 147.833 297.818 147.601 297.113L52.7177 8.06043C52.4165 7.14294 51.1187 7.14294 50.8175 8.06043L-44.0662 297.113C-44.2975 297.818 -43.7084 298.52 -42.9743 298.415L-8.2347 293.441C-7.47081 293.331 -6.87614 294.091 -7.16636 294.807L-66.7194 441.526C-67.0052 442.23 -66.4325 442.983 -65.6778 442.896L-24.3757 438.112C-23.6176 438.025 -23.0445 438.784 -23.337 439.489L-97.9719 619.308C-98.2604 620.003 -97.7065 620.755 -96.9569 620.687L18.3689 610.107C18.9548 610.053 19.4602 610.514 19.4602 611.103V805.365C19.4602 805.917 19.9079 806.365 20.4602 806.365H83.075C83.6272 806.365 84.075 805.917 84.075 805.365V611.103C84.075 610.514 84.5804 610.053 85.1663 610.107L200.492 620.687C201.242 620.755 201.796 620.003 201.507 619.308L126.872 439.489C126.58 438.784 127.153 438.025 127.911 438.112L169.213 442.896C169.968 442.983 170.54 442.23 170.255 441.526L110.702 294.807C110.411 294.091 111.006 293.331 111.77 293.441L146.51 298.415Z" fill="#00020D"/>
<path d="M138.631 467.753L202.143 620.838L146.77 615.764L107.675 464.61L138.631 467.753Z" fill="#03215B"/>
<path d="M123.414 324.434L170.889 443.09L126.219 437.916L97.4848 320.767L123.414 324.434Z" fill="#03215B"/>
<path d="M51.7676 5.16602L148.104 298.644L115.609 293.99L51.7676 5.16602Z" fill="#03215B"/>
<path fill-rule="evenodd" clip-rule="evenodd" d="M376.642 460.509C377.361 460.689 378.021 460.053 377.866 459.328L330.975 240.239C330.773 239.294 329.481 239.16 329.085 240.042L237.2 444.693C236.897 445.37 237.409 446.129 238.15 446.1L263.21 445.125C263.981 445.095 264.492 445.912 264.129 446.593L209.279 549.38C208.921 550.051 209.412 550.858 210.171 550.849L240.031 550.494C240.794 550.485 241.284 551.299 240.92 551.97L172.389 678.014C172.029 678.675 172.501 679.481 173.253 679.49L258.157 680.506C258.746 680.513 259.2 681.024 259.138 681.609L243.994 824.23C243.936 824.78 244.334 825.271 244.883 825.328L290.402 830.064C290.951 830.121 291.444 829.722 291.502 829.173L306.646 686.552C306.708 685.967 307.26 685.56 307.837 685.674L391.099 702.154C391.837 702.3 392.468 701.609 392.255 700.888L351.696 563.495C351.48 562.763 352.13 562.068 352.875 562.234L382.008 568.727C382.749 568.892 383.398 568.203 383.189 567.474L351.127 455.645C350.915 454.904 351.587 454.21 352.335 454.398L376.642 460.509Z" fill="#00020D"/>
<path d="M358.005 584.802L392.723 702.475L352.408 694.501L335.491 580.117L358.005 584.802Z" fill="#03215B"/>
<path d="M358.032 478.019L383.653 569.093L351.214 561.864L339.254 473.333L358.032 478.019Z" fill="#03215B"/>
<path d="M330.336 237.254L378.203 460.901L354.675 454.986L330.336 237.254Z" fill="#03215B"/>
<path fill-rule="evenodd" clip-rule="evenodd" d="M662.494 643.718C663.241 643.889 663.896 643.189 663.677 642.455L632.086 536.702C631.835 535.863 630.703 535.731 630.262 536.489L574.708 632.08C574.322 632.744 574.796 633.575 575.562 633.581L590.02 633.695C590.825 633.701 591.291 634.605 590.83 635.265L558.109 682.161C557.653 682.814 558.103 683.709 558.898 683.731L576.341 684.228C577.14 684.251 577.589 685.154 577.125 685.806L535.939 743.676C535.48 744.321 535.915 745.216 536.704 745.253L589.614 747.721C590.193 747.748 590.627 748.26 590.559 748.835L582.495 816.592C582.429 817.14 582.821 817.637 583.37 817.701L611.675 821.002C612.223 821.065 612.721 820.673 612.786 820.124L620.85 752.368C620.918 751.792 621.461 751.394 622.03 751.501L674.071 761.271C674.848 761.417 675.481 760.647 675.186 759.914L648.713 694.154C648.415 693.413 649.064 692.638 649.846 692.8L666.929 696.329C667.707 696.49 668.354 695.723 668.065 694.984L647.249 641.845C646.956 641.097 647.621 640.325 648.405 640.504L662.494 643.718Z" fill="#00020D"/>
<path d="M652.572 703.708L675.868 761.609L650.124 756.778L638.193 700.898L652.572 703.708Z" fill="#03215B"/>
<path d="M651.503 651.92L668.738 696.703L648.016 692.421L639.502 649.199L651.503 651.92Z" fill="#03215B"/>
<path d="M631.425 534.489L664.169 644.1L649.132 640.669L631.425 534.489Z" fill="#03215B"/>
<path fill-rule="evenodd" clip-rule="evenodd" d="M490.715 592.9C491.497 592.926 492.004 592.084 491.614 591.405L434.517 491.844C434.104 491.124 433.044 491.19 432.726 491.956L388.776 597.853C388.476 598.575 389.085 599.347 389.858 599.224L406.618 596.555C407.43 596.426 408.044 597.279 407.662 598.008L379.99 650.801C379.612 651.522 380.21 652.369 381.017 652.256L401.217 649.414C402.029 649.3 402.627 650.156 402.239 650.878L367.178 716.177C366.794 716.892 367.378 717.744 368.184 717.643L428.941 710.084C429.513 710.013 430.027 710.439 430.064 711.014L434.477 779.979C434.512 780.53 434.988 780.949 435.539 780.915L468.56 778.844C469.111 778.81 469.529 778.335 469.494 777.784L465.081 708.818C465.044 708.243 465.5 707.756 466.076 707.756L527.312 707.666C528.124 707.665 528.595 706.747 528.123 706.086L485.017 645.687C484.541 645.02 485.025 644.096 485.844 644.107L506.246 644.404C507.061 644.416 507.546 643.5 507.079 642.832L472.899 593.917C472.427 593.242 472.927 592.319 473.75 592.346L490.715 592.9Z" fill="#00020D"/>
<path d="M491.286 654.449L529.249 707.663L499.123 707.709L474.437 654.364L491.286 654.449Z" fill="#03215B"/>
<path d="M479.722 603.127L508.197 644.432L483.869 644.079L465.585 602.681L479.722 603.127Z" fill="#03215B"/>
<path d="M433.505 490.079L492.505 592.959L474.787 592.38L433.505 490.079Z" fill="#03215B"/>
<path fill-rule="evenodd" clip-rule="evenodd" d="M1777.12 356.304C1776.38 356.409 1775.79 355.68 1776.04 354.972L1854.41 139.416C1854.72 138.556 1855.93 138.535 1856.28 139.383L1942.7 352.014C1942.98 352.713 1942.42 353.463 1941.67 353.385L1911.9 350.284C1911.12 350.203 1910.55 351.019 1910.91 351.725L1964.4 458.952C1964.75 459.648 1964.2 460.457 1963.43 460.394L1927.99 457.528C1927.21 457.465 1926.66 458.281 1927.02 458.978L1994.11 590.574C1994.46 591.263 1993.93 592.072 1993.16 592.026L1892.97 585.973C1892.39 585.938 1891.9 586.406 1891.92 586.989L1894.62 730.814C1894.63 731.366 1894.19 731.822 1893.64 731.831L1839.35 732.795C1838.8 732.805 1838.34 732.365 1838.33 731.813L1835.63 587.988C1835.62 587.405 1835.11 586.954 1834.53 587.01L1734.64 596.613C1733.87 596.687 1733.31 595.897 1733.64 595.196L1795.73 461.307C1796.06 460.598 1795.49 459.802 1794.71 459.893L1759.4 464.014C1758.63 464.105 1758.05 463.316 1758.37 462.608L1807.8 353.554C1808.13 352.836 1807.53 352.041 1806.75 352.15L1777.12 356.304Z" fill="#00020D"/>
<path d="M1786.09 482.047L1732.9 596.78L1781.07 592.154L1813.01 479.233L1786.09 482.047Z" fill="#03215B"/>
<path d="M1797.34 375.318L1757.64 464.22L1796.49 459.685L1819.88 372.192L1797.34 375.318Z" fill="#03215B"/>
<path d="M1855.3 136.975L1775.47 356.536L1803.72 352.576L1855.3 136.975Z" fill="#03215B"/>
<path fill-rule="evenodd" clip-rule="evenodd" d="M267.995 485.291C268.735 485.333 269.261 484.585 268.971 483.903L219.508 367.613C219.129 366.722 217.83 366.834 217.613 367.778L189.302 490.802C189.136 491.524 189.785 492.171 190.506 492.002L202.979 489.08C203.73 488.904 204.39 489.608 204.166 490.345L185.289 552.663C185.069 553.389 185.706 554.086 186.449 553.934L201.645 550.808C202.391 550.654 203.03 551.359 202.803 552.086L178.851 628.989C178.628 629.706 179.246 630.406 179.986 630.272L226.303 621.9C226.883 621.796 227.427 622.211 227.479 622.798L234.633 703.738C234.682 704.288 235.167 704.696 235.717 704.648L260.775 702.478C261.325 702.43 261.732 701.946 261.683 701.396L254.529 620.455C254.477 619.869 254.941 619.366 255.53 619.369L302.612 619.652C303.364 619.657 303.85 618.862 303.504 618.194L266.425 546.576C266.075 545.899 266.58 545.095 267.342 545.118L282.855 545.585C283.614 545.607 284.119 544.811 283.775 544.134L254.252 486.007C253.903 485.32 254.429 484.514 255.199 484.558L267.995 485.291Z" fill="#00020D"/>
<path d="M271.955 557.233L304.264 619.662L280.894 619.524L258.878 557.027L271.955 557.233Z" fill="#03215B"/>
<path d="M260.229 497.183L284.538 545.635L265.644 545.067L249.237 496.573L260.229 497.183Z" fill="#03215B"/>
<path d="M218.303 364.78L269.601 485.383L255.823 484.593L218.303 364.78Z" fill="#03215B"/>
<path d="M-5.21857 859.382L725.293 844.512C729.982 844.417 731.972 838.5 728.293 835.591L643.551 768.579L561.182 703.444C552.385 696.488 542.439 691.127 531.792 687.604L409.284 647.069C395.534 642.519 382.992 634.918 372.597 624.834L320.72 574.51C304.405 558.683 283.004 549.159 260.325 547.633L97.2291 536.654C41.7974 532.922 -5.21867 576.88 -5.21865 632.437L-5.21857 859.382Z" fill="#00020D"/>
<path fill-rule="evenodd" clip-rule="evenodd" d="M1426.4 578.212C1425.63 578.329 1425.03 577.564 1425.32 576.845L1475.61 453.514C1475.93 452.731 1477.01 452.675 1477.41 453.421L1540.45 570.872C1540.82 571.557 1540.3 572.38 1539.52 572.343L1520.08 571.415C1519.27 571.376 1518.75 572.278 1519.2 572.961L1557.26 631.095C1557.7 631.771 1557.2 632.665 1556.39 632.641L1533.08 631.971C1532.27 631.947 1531.77 632.85 1532.23 633.525L1580.14 705.182C1580.59 705.851 1580.1 706.746 1579.3 706.737L1510.55 705.907C1509.97 705.9 1509.51 706.382 1509.54 706.959L1513.82 787.797C1513.85 788.349 1513.43 788.819 1512.87 788.848L1475.76 790.773C1475.21 790.802 1474.74 790.378 1474.71 789.826L1470.43 708.988C1470.4 708.411 1469.89 707.98 1469.31 708.046L1401.03 715.985C1400.23 716.077 1399.65 715.237 1400.03 714.525L1440.11 638.304C1440.49 637.585 1439.9 636.739 1439.09 636.847L1415.99 639.925C1415.19 640.032 1414.59 639.194 1414.96 638.476L1446.67 576.723C1447.05 575.997 1446.44 575.154 1445.63 575.277L1426.4 578.212Z" fill="#00020D"/>
<path d="M1434.17 649.577L1399.14 716.203L1432.55 712.323L1452.84 647.278L1434.17 649.577Z" fill="#03215B"/>
<path d="M1440.18 588.591L1414.09 640.178L1441.01 636.591L1455.79 586.229L1440.18 588.591Z" fill="#03215B"/>
<path d="M1476.41 451.547L1424.65 578.477L1444.22 575.492L1476.41 451.547Z" fill="#03215B"/>
<path d="M1173.02 825.874H2132.85C2185.87 825.874 2228.85 782.894 2228.85 729.874V574.485C2228.85 511.752 2169.67 465.875 2108.91 481.516L2062.89 493.366C2054.46 495.537 2046.36 498.845 2038.82 503.2L1936.77 562.132C1922.17 570.561 1905.61 574.998 1888.76 574.998H1775.16C1767.11 574.998 1759.09 576.01 1751.29 578.011L1674.91 597.614C1667.57 599.498 1660.48 602.244 1653.78 605.795L1510.33 681.891C1496.48 689.242 1481.03 693.085 1465.35 693.085H1397.7C1379.88 693.085 1362.41 698.043 1347.26 707.404L1170.4 816.62C1166.11 819.267 1167.98 825.874 1173.02 825.874Z" fill="#00020D"/>
</g>
<defs>
<filter id="filter0_f_128_14215" x="-103.05" y="0.166016" width="2415.35" height="864.216" filterUnits="userSpaceOnUse" color-interpolation-filters="sRGB">
<feFlood flood-opacity="0" result="BackgroundImageFix"/>
<feBlend mode="normal" in="SourceGraphic" in2="BackgroundImageFix" result="shape"/>
<feGaussianBlur stdDeviation="2.5" result="effect1_foregroundBlur_128_14215"/>
</filter>
</defs>
</svg>
