<svg width="1920" height="664" viewBox="0 0 1920 664" fill="none" xmlns="http://www.w3.org/2000/svg">
<g filter="url(#filter0_f_128_13963)">
<path fill-rule="evenodd" clip-rule="evenodd" d="M311.306 248.068C312.043 248.265 312.723 247.598 312.538 246.858L307.596 227.023C307.382 226.164 306.236 225.99 305.773 226.747L295.072 244.217C294.673 244.868 295.121 245.706 295.884 245.735L296.081 245.743C296.88 245.774 297.32 246.683 296.848 247.329L291.34 254.872C290.874 255.511 291.297 256.41 292.085 256.458L292.831 256.502C293.624 256.549 294.046 257.457 293.571 258.095L286.205 267.992C285.735 268.623 286.143 269.522 286.926 269.583L295.683 270.271C296.261 270.317 296.679 270.844 296.59 271.417L294.595 284.34C294.511 284.886 294.885 285.395 295.431 285.478L299.748 286.131C300.294 286.213 300.805 285.838 300.889 285.292L302.884 272.369C302.972 271.795 303.529 271.416 304.096 271.544L312.66 273.476C313.426 273.648 314.086 272.911 313.828 272.17L309.784 260.547C309.524 259.798 310.2 259.057 310.971 259.246L311.696 259.424C312.463 259.612 313.138 258.878 312.885 258.131L309.905 249.304C309.65 248.548 310.343 247.81 311.115 248.017L311.306 248.068Z" fill="#8066B7"/>
<path fill-rule="evenodd" clip-rule="evenodd" d="M312.95 248.508L307.02 224.71L306.729 246.841L312.95 248.508ZM310.241 250.111L313.469 259.858L304.888 257.753L305.276 248.788L310.241 250.111ZM310.036 261.264L314.421 273.872L303.753 271.467L304.08 259.872L310.036 261.264Z" fill="#B292DF"/>
<path d="M310.036 261.264L314.421 273.873L309.087 272.67L307.058 260.568L310.036 261.264Z" fill="#B292DF"/>
<path d="M310.241 250.111L313.469 259.858L309.178 258.806L307.759 249.449L310.241 250.111Z" fill="#B292DF"/>
<path d="M307.02 224.71L312.95 248.508L309.839 247.674L307.02 224.71Z" fill="#B292DF"/>
<path fill-rule="evenodd" clip-rule="evenodd" d="M102.525 138.023C103.3 138.187 103.951 137.428 103.67 136.688L94.3763 112.268C94.0904 111.517 93.0783 111.396 92.6194 112.058L77.7043 133.574C77.2525 134.226 77.7013 135.118 78.4934 135.142L80.1228 135.191C80.9572 135.217 81.393 136.192 80.8557 136.832L73.1009 146.068C72.5686 146.702 72.9908 147.669 73.8168 147.708L76.2353 147.823C77.066 147.862 77.4864 148.839 76.9446 149.471L66.6757 161.45C66.1385 162.077 66.547 163.046 67.3701 163.097L81.3856 163.971C81.9593 164.006 82.3837 164.517 82.3139 165.088L80.4147 180.606C80.3476 181.154 80.7378 181.652 81.2861 181.718L88.5784 182.592C89.1267 182.658 89.6257 182.267 89.6928 181.719L91.5919 166.2C91.6617 165.63 92.197 165.234 92.7627 165.335L106.584 167.799C107.395 167.944 108.026 167.099 107.655 166.364L100.573 152.304C100.199 151.562 100.843 150.713 101.659 150.871L104.035 151.332C104.847 151.489 105.49 150.65 105.126 149.908L99.8237 139.106C99.4563 138.358 100.115 137.514 100.931 137.686L102.525 138.023Z" fill="#8066B7"/>
<path d="M101.111 153.365L108.555 168.151L100.66 166.744L96.7008 152.551L101.111 153.365Z" fill="#B292DF"/>
<path d="M100.495 140.285L106.013 151.715L99.6557 150.483L96.812 139.51L100.495 140.285Z" fill="#B292DF"/>
<path d="M93.7019 110.496L104.323 138.403L99.7075 137.427L93.7019 110.496Z" fill="#B292DF"/>
<path fill-rule="evenodd" clip-rule="evenodd" d="M725.37 185.005C724.578 184.999 724.105 184.117 724.539 183.455L738.859 161.601C739.3 160.928 740.314 161.027 740.62 161.772L750.567 185.99C750.868 186.723 750.239 187.498 749.46 187.351L747.858 187.05C747.037 186.895 746.402 187.754 746.79 188.495L752.381 199.18C752.764 199.914 752.144 200.768 751.329 200.629L748.942 200.221C748.123 200.081 747.502 200.945 747.896 201.678L755.353 215.583C755.743 216.311 755.136 217.17 754.321 217.043L740.445 214.887C739.877 214.798 739.353 215.206 739.298 215.778L737.821 231.343C737.769 231.893 737.281 232.295 736.731 232.241L729.421 231.529C728.872 231.476 728.468 230.987 728.521 230.437L729.998 214.872C730.052 214.3 729.614 213.799 729.04 213.776L715.013 213.215C714.189 213.182 713.754 212.222 714.274 211.583L724.21 199.372C724.734 198.728 724.288 197.76 723.457 197.74L721.037 197.679C720.211 197.658 719.763 196.7 720.277 196.054L727.776 186.643C728.295 185.991 727.834 185.025 726.999 185.018L725.37 185.005Z" fill="#8154A4"/>
<path d="M723.457 200.293L713.011 213.135L721.025 213.456L727.939 200.445L723.457 200.293Z" fill="#B292DF"/>
<path d="M726.867 187.65L719.023 197.629L725.497 197.791L730.631 187.685L726.867 187.65Z" fill="#B292DF"/>
<path d="M739.898 160.014L723.533 184.99L728.25 185.028L739.898 160.014Z" fill="#B292DF"/>
<path fill-rule="evenodd" clip-rule="evenodd" d="M282.445 242.15C283.237 242.17 283.735 241.305 283.321 240.629L269.644 218.32C269.223 217.634 268.206 217.699 267.878 218.433L257.221 242.301C256.898 243.024 257.505 243.819 258.288 243.698L259.898 243.449C260.723 243.322 261.333 244.202 260.924 244.929L255.02 255.42C254.615 256.14 255.209 257.014 256.028 256.902L258.427 256.574C259.251 256.461 259.845 257.344 259.43 258.064L251.566 271.71C251.154 272.424 251.736 273.302 252.554 273.203L266.493 271.507C267.063 271.437 267.576 271.862 267.613 272.435L268.633 288.035C268.669 288.586 269.145 289.004 269.696 288.969L277.027 288.499C277.578 288.464 277.995 287.988 277.959 287.437L276.939 271.838C276.902 271.264 277.354 270.778 277.929 270.774L291.972 270.677C292.797 270.672 293.259 269.726 292.758 269.071L283.182 256.543C282.677 255.882 283.152 254.93 283.983 254.936L286.405 254.956C287.231 254.962 287.707 254.02 287.212 253.358L279.991 243.707C279.491 243.039 279.981 242.089 280.815 242.109L282.445 242.15Z" fill="#8066B7"/>
<path d="M283.909 257.488L293.976 270.663L285.953 270.719L279.422 257.491L283.909 257.488Z" fill="#B292DF"/>
<path d="M280.87 244.743L288.42 254.972L281.942 254.92L277.106 244.653L280.87 244.743Z" fill="#B292DF"/>
<path d="M268.652 216.701L284.282 242.196L279.564 242.078L268.652 216.701Z" fill="#B292DF"/>
<g filter="url(#filter1_i_128_13963)">
<path d="M103.996 174.726L-7.56789 152.296C-10.6632 151.674 -13.5534 154.041 -13.5534 157.198V563.583C-13.5534 618.185 31.9275 661.793 86.4819 659.498L779.609 630.336C811.698 628.986 840.986 611.679 857.646 584.22L958.636 417.782C990.406 365.423 965.688 297.106 907.771 277.197L764.839 228.064C741.349 219.989 715.644 221.334 693.124 231.815L529.947 307.759C502.444 320.559 470.508 319.606 443.816 305.189L408.529 286.128C395.797 279.251 381.675 275.341 367.219 274.691L276.916 270.628C257.956 269.775 239.674 263.322 224.381 252.082L141.924 191.485C130.654 183.203 117.709 177.483 103.996 174.726Z" fill="url(#paint0_linear_128_13963)"/>
</g>
<path fill-rule="evenodd" clip-rule="evenodd" d="M1576.2 340.287C1575.46 340.286 1575.01 339.483 1575.4 338.859L1584.05 324.745C1584.48 324.036 1585.54 324.139 1585.84 324.919L1591.68 340.442C1591.94 341.128 1591.34 341.83 1590.63 341.69C1589.87 341.542 1589.27 342.319 1589.6 343.014L1592.68 349.389C1593.03 350.124 1592.41 350.948 1591.6 350.807L1591.38 350.767C1590.57 350.625 1589.95 351.459 1590.31 352.193L1594.5 360.68C1594.86 361.408 1594.25 362.237 1593.45 362.109L1585.6 360.855C1585.03 360.764 1584.5 361.172 1584.45 361.746L1583.49 371.831C1583.44 372.381 1582.95 372.784 1582.4 372.73L1578.44 372.345C1577.89 372.292 1577.49 371.803 1577.54 371.253L1578.5 361.167C1578.55 360.593 1578.11 360.091 1577.53 360.071L1569.59 359.789C1568.78 359.761 1568.33 358.829 1568.82 358.184L1574.53 350.66C1575.03 350.008 1574.57 349.069 1573.75 349.054L1573.52 349.049C1572.71 349.033 1572.25 348.104 1572.74 347.451L1576.95 341.784C1577.41 341.166 1576.97 340.288 1576.2 340.287Z" fill="#724AA6"/>
<path d="M1574.4 350.825L1567.66 359.721L1572.79 359.903L1577.27 350.908L1574.4 350.825Z" fill="#B987FF"/>
<path d="M1576.64 342.1L1571.58 349.011L1575.72 349.091L1579.05 342.106L1576.64 342.1Z" fill="#B987FF"/>
<path d="M1585.11 323.003L1574.52 340.285L1577.54 340.288L1585.11 323.003Z" fill="#B987FF"/>
<path fill-rule="evenodd" clip-rule="evenodd" d="M1716.49 306.218C1715.71 306.355 1715.09 305.573 1715.4 304.843L1723.18 286.339C1723.49 285.598 1724.51 285.512 1724.95 286.189L1735.83 303.109C1736.26 303.776 1735.78 304.652 1734.98 304.648L1734.47 304.646C1733.64 304.642 1733.17 305.602 1733.68 306.26L1739.1 313.183C1739.61 313.835 1739.15 314.787 1738.33 314.798L1737.22 314.812C1736.39 314.822 1735.93 315.784 1736.45 316.434L1743.79 325.622C1744.31 326.267 1743.87 327.221 1743.04 327.244L1732.47 327.536C1731.89 327.552 1731.45 328.047 1731.5 328.62L1732.55 340.622C1732.6 341.173 1732.19 341.656 1731.64 341.703L1726.21 342.164C1725.66 342.211 1725.18 341.803 1725.13 341.253L1724.08 329.25C1724.03 328.677 1723.51 328.264 1722.94 328.345L1712.47 329.839C1711.66 329.955 1711.06 329.09 1711.45 328.367L1717.09 318.078C1717.49 317.349 1716.87 316.478 1716.05 316.608L1714.96 316.781C1714.14 316.91 1713.53 316.049 1713.92 315.321L1718.05 307.587C1718.45 306.852 1717.82 305.985 1717 306.13L1716.49 306.218Z" fill="#724AA6"/>
<path d="M1716.83 318.546L1710.49 330.122L1716.82 329.219L1720.37 318.019L1716.83 318.546Z" fill="#B287ED"/>
<path d="M1717.68 308.14L1712.97 317.095L1718.07 316.289L1720.64 307.625L1717.68 308.14Z" fill="#B287ED"/>
<path d="M1723.92 284.591L1714.68 306.535L1718.39 305.885L1723.92 284.591Z" fill="#B287ED"/>
<path fill-rule="evenodd" clip-rule="evenodd" d="M1677.63 315.726C1676.93 315.803 1676.4 315.105 1676.66 314.45L1683.55 297.293C1683.89 296.446 1685.1 296.46 1685.42 297.313L1691.93 314.619C1692.17 315.279 1691.63 315.966 1690.93 315.873C1690.2 315.777 1689.65 316.526 1689.96 317.194L1693.54 324.864C1693.87 325.57 1693.3 326.366 1692.53 326.282L1692.28 326.255C1691.5 326.17 1690.93 326.973 1691.27 327.68L1696.06 337.689C1696.39 338.387 1695.84 339.184 1695.06 339.116L1687.85 338.477C1687.27 338.426 1686.77 338.879 1686.76 339.462L1686.63 351.486C1686.62 352.038 1686.17 352.481 1685.61 352.475L1682.12 352.436C1681.56 352.43 1681.12 351.977 1681.13 351.425L1681.26 339.401C1681.27 338.819 1680.78 338.354 1680.2 338.392L1672.97 338.872C1672.2 338.923 1671.66 338.114 1672.01 337.423L1677.02 327.523C1677.37 326.824 1676.82 326.008 1676.04 326.075L1675.79 326.097C1675.02 326.164 1674.46 325.356 1674.81 324.657L1678.56 317.068C1678.89 316.407 1678.36 315.646 1677.63 315.726Z" fill="#764EAA"/>
<path d="M1676.75 328.052L1671.22 338.988L1675.93 338.676L1679.38 327.855L1676.75 328.052Z" fill="#BB93F4"/>
<path d="M1678.16 317.772L1674.02 326.25L1677.83 325.92L1680.37 317.533L1678.16 317.772Z" fill="#BB93F4"/>
<path d="M1684.51 294.906L1676.08 315.896L1678.85 315.592L1684.51 294.906Z" fill="#BB93F4"/>
<g filter="url(#filter2_i_128_13963)">
<path d="M1865.12 225.4L1959.37 180.498V531.51C1959.37 586.129 1913.87 629.743 1859.3 627.423L1390.86 607.513C1316.78 604.364 1274.08 521.982 1314.22 459.632L1382.25 353.975C1413.82 304.934 1481.47 295.148 1525.65 333.231L1530.25 337.198C1557.39 360.597 1595.31 366.93 1628.58 353.62L1635.3 350.932L1748.86 319.772C1766.18 315.02 1781.81 305.505 1793.99 292.309L1835.86 246.953C1844.15 237.972 1854.08 230.656 1865.12 225.4Z" fill="url(#paint1_linear_128_13963)"/>
</g>
<g filter="url(#filter3_f_128_13963)">
<g filter="url(#filter4_i_128_13963)">
<path fill-rule="evenodd" clip-rule="evenodd" d="M1437.53 115.506C1433.19 116.45 1428.66 116.948 1424.02 116.948C1391.12 116.948 1364.45 91.9547 1364.45 61.1235C1364.45 30.2924 1391.12 5.29883 1424.02 5.29883C1450.46 5.29883 1472.88 21.4468 1480.66 43.7946C1488.1 37.8323 1500.22 33.9522 1513.9 33.9522C1536.54 33.9522 1554.89 44.569 1554.89 57.6654C1554.89 58.8741 1554.73 60.0617 1554.43 61.2218C1587.8 62.3908 1614 73.8442 1614 87.8008C1614 102.534 1584.81 114.478 1548.79 114.478C1534.74 114.478 1521.73 112.66 1511.09 109.568C1505.21 123.991 1490.27 134.239 1472.77 134.239C1457.78 134.239 1444.67 126.723 1437.53 115.506Z" fill="url(#paint2_linear_128_13963)"/>
</g>
<g filter="url(#filter5_i_128_13963)">
<path fill-rule="evenodd" clip-rule="evenodd" d="M1317.83 152.128C1318.23 149.512 1318.44 146.839 1318.44 144.12C1318.44 113.288 1291.77 88.2949 1258.87 88.2949C1225.97 88.2949 1199.3 113.288 1199.3 144.12C1199.3 144.407 1199.3 144.693 1199.31 144.979C1180.84 148.698 1167 164.043 1167 182.406C1167 203.552 1185.35 220.693 1207.98 220.693C1214.11 220.693 1219.92 219.438 1225.14 217.189C1231.93 224.843 1245.71 230.08 1261.61 230.08C1284.24 230.08 1302.59 219.463 1302.59 206.367C1302.59 205.545 1302.52 204.732 1302.38 203.932C1309.04 204.869 1316.18 205.379 1323.62 205.379C1359.63 205.379 1388.82 193.435 1388.82 178.701C1388.82 163.968 1359.63 152.024 1323.62 152.024C1321.67 152.024 1319.74 152.059 1317.83 152.128Z" fill="url(#paint3_linear_128_13963)"/>
</g>
<g filter="url(#filter6_i_128_13963)">
<ellipse cx="1397.5" cy="230.299" rx="33.5" ry="23" fill="url(#paint4_linear_128_13963)"/>
</g>
</g>
</g>
<defs>
<filter id="filter0_f_128_13963" x="-17.5534" y="1.29883" width="1980.93" height="662.285" filterUnits="userSpaceOnUse" color-interpolation-filters="sRGB">
<feFlood flood-opacity="0" result="BackgroundImageFix"/>
<feBlend mode="normal" in="SourceGraphic" in2="BackgroundImageFix" result="shape"/>
<feGaussianBlur stdDeviation="2" result="effect1_foregroundBlur_128_13963"/>
</filter>
<filter id="filter1_i_128_13963" x="-17.5534" y="152.196" width="990.159" height="509.388" filterUnits="userSpaceOnUse" color-interpolation-filters="sRGB">
<feFlood flood-opacity="0" result="BackgroundImageFix"/>
<feBlend mode="normal" in="SourceGraphic" in2="BackgroundImageFix" result="shape"/>
<feColorMatrix in="SourceAlpha" type="matrix" values="0 0 0 0 0 0 0 0 0 0 0 0 0 0 0 0 0 0 127 0" result="hardAlpha"/>
<feOffset dx="-12" dy="2"/>
<feGaussianBlur stdDeviation="2"/>
<feComposite in2="hardAlpha" operator="arithmetic" k2="-1" k3="1"/>
<feColorMatrix type="matrix" values="0 0 0 0 0.769272 0 0 0 0 0.676667 0 0 0 0 0.966667 0 0 0 0.4 0"/>
<feBlend mode="normal" in2="shape" result="effect1_innerShadow_128_13963"/>
</filter>
<filter id="filter2_i_128_13963" x="1298.8" y="180.498" width="668.569" height="447.014" filterUnits="userSpaceOnUse" color-interpolation-filters="sRGB">
<feFlood flood-opacity="0" result="BackgroundImageFix"/>
<feBlend mode="normal" in="SourceGraphic" in2="BackgroundImageFix" result="shape"/>
<feColorMatrix in="SourceAlpha" type="matrix" values="0 0 0 0 0 0 0 0 0 0 0 0 0 0 0 0 0 0 127 0" result="hardAlpha"/>
<feOffset dx="19"/>
<feGaussianBlur stdDeviation="4"/>
<feComposite in2="hardAlpha" operator="arithmetic" k2="-1" k3="1"/>
<feColorMatrix type="matrix" values="0 0 0 0 0.682667 0 0 0 0 0.533333 0 0 0 0 1 0 0 0 0.62 0"/>
<feBlend mode="normal" in2="shape" result="effect1_innerShadow_128_13963"/>
</filter>
<filter id="filter3_f_128_13963" x="1162" y="0.298828" width="457" height="258" filterUnits="userSpaceOnUse" color-interpolation-filters="sRGB">
<feFlood flood-opacity="0" result="BackgroundImageFix"/>
<feBlend mode="normal" in="SourceGraphic" in2="BackgroundImageFix" result="shape"/>
<feGaussianBlur stdDeviation="2.5" result="effect1_foregroundBlur_128_13963"/>
</filter>
<filter id="filter4_i_128_13963" x="1357.45" y="-2.70117" width="256.552" height="136.94" filterUnits="userSpaceOnUse" color-interpolation-filters="sRGB">
<feFlood flood-opacity="0" result="BackgroundImageFix"/>
<feBlend mode="normal" in="SourceGraphic" in2="BackgroundImageFix" result="shape"/>
<feColorMatrix in="SourceAlpha" type="matrix" values="0 0 0 0 0 0 0 0 0 0 0 0 0 0 0 0 0 0 127 0" result="hardAlpha"/>
<feOffset dx="-7" dy="-10"/>
<feGaussianBlur stdDeviation="4"/>
<feComposite in2="hardAlpha" operator="arithmetic" k2="-1" k3="1"/>
<feColorMatrix type="matrix" values="0 0 0 0 0.188235 0 0 0 0 0.145098 0 0 0 0 0.443137 0 0 0 0.24 0"/>
<feBlend mode="normal" in2="shape" result="effect1_innerShadow_128_13963"/>
</filter>
<filter id="filter5_i_128_13963" x="1160" y="80.2949" width="228.824" height="149.785" filterUnits="userSpaceOnUse" color-interpolation-filters="sRGB">
<feFlood flood-opacity="0" result="BackgroundImageFix"/>
<feBlend mode="normal" in="SourceGraphic" in2="BackgroundImageFix" result="shape"/>
<feColorMatrix in="SourceAlpha" type="matrix" values="0 0 0 0 0 0 0 0 0 0 0 0 0 0 0 0 0 0 127 0" result="hardAlpha"/>
<feOffset dx="-7" dy="-10"/>
<feGaussianBlur stdDeviation="4"/>
<feComposite in2="hardAlpha" operator="arithmetic" k2="-1" k3="1"/>
<feColorMatrix type="matrix" values="0 0 0 0 0.188235 0 0 0 0 0.145098 0 0 0 0 0.443137 0 0 0 0.24 0"/>
<feBlend mode="normal" in2="shape" result="effect1_innerShadow_128_13963"/>
</filter>
<filter id="filter6_i_128_13963" x="1357" y="199.299" width="74" height="54" filterUnits="userSpaceOnUse" color-interpolation-filters="sRGB">
<feFlood flood-opacity="0" result="BackgroundImageFix"/>
<feBlend mode="normal" in="SourceGraphic" in2="BackgroundImageFix" result="shape"/>
<feColorMatrix in="SourceAlpha" type="matrix" values="0 0 0 0 0 0 0 0 0 0 0 0 0 0 0 0 0 0 127 0" result="hardAlpha"/>
<feOffset dx="-7" dy="-10"/>
<feGaussianBlur stdDeviation="4"/>
<feComposite in2="hardAlpha" operator="arithmetic" k2="-1" k3="1"/>
<feColorMatrix type="matrix" values="0 0 0 0 0.188235 0 0 0 0 0.145098 0 0 0 0 0.443137 0 0 0 0.24 0"/>
<feBlend mode="normal" in2="shape" result="effect1_innerShadow_128_13963"/>
</filter>
<linearGradient id="paint0_linear_128_13963" x1="519" y1="35.5" x2="383.5" y2="559" gradientUnits="userSpaceOnUse">
<stop stop-color="#76418E"/>
<stop offset="1" stop-color="#8D8BDD"/>
</linearGradient>
<linearGradient id="paint1_linear_128_13963" x1="1710" y1="205" x2="1886.73" y2="425.909" gradientUnits="userSpaceOnUse">
<stop stop-color="#76418E"/>
<stop offset="1" stop-color="#4E4CA6"/>
</linearGradient>
<linearGradient id="paint2_linear_128_13963" x1="1411" y1="69.2988" x2="1567.5" y2="134.299" gradientUnits="userSpaceOnUse">
<stop stop-color="#AA9AF5"/>
<stop offset="1" stop-color="#7065B6"/>
</linearGradient>
<linearGradient id="paint3_linear_128_13963" x1="1174.5" y1="98.2988" x2="1438.76" y2="152.669" gradientUnits="userSpaceOnUse">
<stop stop-color="#AA9AF5"/>
<stop offset="1" stop-color="#7065B6"/>
</linearGradient>
<linearGradient id="paint4_linear_128_13963" x1="1397.5" y1="207.299" x2="1397.5" y2="253.299" gradientUnits="userSpaceOnUse">
<stop stop-color="#8E7FDA"/>
<stop offset="1" stop-color="#7065B6"/>
</linearGradient>
</defs>
</svg>
