<svg width="80" height="80" viewBox="0 0 80 80" fill="none" xmlns="http://www.w3.org/2000/svg">
<g id="OFF">
<mask id="mask0_223_11921" style="mask-type:alpha" maskUnits="userSpaceOnUse" x="0" y="0" width="80" height="80">
<circle id="Ellipse 41" cx="40" cy="40" r="40" fill="#C4C4C4"/>
</mask>
<g mask="url(#mask0_223_11921)">
<g id="Group 16">
<g id="Group 17">
<path id="Ellipse 45" d="M54.4 31.5998C54.4 37.4812 50.9693 42.5613 46 44.9483C44.0631 45.8786 48.4 59.1998 39.6 59.1998C30.8 59.1998 35.1369 45.8786 33.2 44.9483C28.2306 42.5613 24.8 37.4812 24.8 31.5998C24.8 23.426 31.4262 16.7998 39.6 16.7998C47.7738 16.7998 54.4 23.426 54.4 31.5998Z" fill="#5D75B0"/>
<path id="Rectangle 69" d="M32.8 52.9804C32.8 52.8807 32.8809 52.7998 32.9806 52.7998H46.2193C46.3191 52.7998 46.4 52.8807 46.4 52.9804V57.1998C46.4 60.9553 43.3555 63.9998 39.6 63.9998C35.8445 63.9998 32.8 60.9553 32.8 57.1998V52.9804Z" fill="#5D75B0"/>
<rect id="Rectangle 68" x="30.2" y="45.3999" width="18.8" height="12.4" rx="2" fill="#5D75B0" stroke="#020A18" stroke-width="2"/>
<rect id="Rectangle 70" x="30.2" y="49.3999" width="18.8" height="4.4" fill="#5D75B0" stroke="#020A18" stroke-width="2"/>
<path id="Vector 6" d="M37.032 46.0525C36.9144 41.0736 36.0439 31.2549 33.5031 31.8106C30.3272 32.5054 28.2099 35.2843 30.6801 35.9791C33.1503 36.6738 45.5012 29.7266 41.9723 28.6845C38.4435 27.6424 35.9733 27.6425 37.032 29.7266C38.0906 31.8106 45.8541 36.3265 47.2656 34.9371C48.6771 33.5476 47.9714 30.7687 45.8541 31.1161C43.7368 31.4634 40.2079 43.6211 40.5608 46.4" stroke="#020A18" stroke-width="2"/>
</g>
<rect id="Rectangle 68_2" x="6.40002" y="56.7998" width="75.2941" height="4.70588" transform="rotate(-30 6.40002 56.7998)" fill="#C2CAFF"/>
<circle id="Ellipse 42" cx="40" cy="40" r="38" stroke="#C2CAFF" stroke-width="4"/>
</g>
</g>
</g>
</svg>
