<svg width="1021" height="556" viewBox="0 0 1021 556" fill="none" xmlns="http://www.w3.org/2000/svg">
<path fill-rule="evenodd" clip-rule="evenodd" d="M311.306 140.068C312.043 140.265 312.723 139.598 312.538 138.858L307.596 119.023C307.382 118.164 306.236 117.99 305.773 118.747L295.072 136.217C294.673 136.868 295.121 137.706 295.884 137.735L296.081 137.743C296.88 137.774 297.32 138.683 296.848 139.329L291.34 146.872C290.874 147.511 291.297 148.41 292.085 148.458L292.831 148.502C293.624 148.549 294.046 149.457 293.571 150.095L286.205 159.992C285.735 160.623 286.143 161.522 286.926 161.583L295.683 162.271C296.261 162.317 296.679 162.844 296.59 163.417L294.595 176.34C294.511 176.886 294.885 177.395 295.431 177.478L299.748 178.131C300.294 178.213 300.805 177.838 300.889 177.292L302.884 164.369C302.972 163.795 303.529 163.416 304.096 163.544L312.66 165.476C313.426 165.648 314.086 164.911 313.828 164.17L309.784 152.547C309.524 151.798 310.2 151.057 310.971 151.246L311.696 151.424C312.463 151.612 313.138 150.878 312.885 150.131L309.905 141.304C309.65 140.548 310.343 139.81 311.115 140.017L311.306 140.068Z" fill="#8066B7"/>
<path fill-rule="evenodd" clip-rule="evenodd" d="M312.95 140.508L307.02 116.71L306.729 138.841L312.95 140.508ZM310.241 142.111L313.469 151.858L304.888 149.753L305.276 140.788L310.241 142.111ZM310.036 153.264L314.421 165.872L303.753 163.467L304.08 151.872L310.036 153.264Z" fill="#B292DF"/>
<path d="M310.036 153.264L314.421 165.873L309.087 164.67L307.058 152.568L310.036 153.264Z" fill="#B292DF"/>
<path d="M310.241 142.111L313.469 151.858L309.178 150.806L307.759 141.449L310.241 142.111Z" fill="#B292DF"/>
<path d="M307.02 116.71L312.95 140.508L309.839 139.674L307.02 116.71Z" fill="#B292DF"/>
<path fill-rule="evenodd" clip-rule="evenodd" d="M102.525 30.0234C103.3 30.1872 103.951 29.4277 103.67 28.688L94.3763 4.26817C94.0904 3.51694 93.0783 3.39557 92.6194 4.0575L77.7043 25.5745C77.2525 26.2263 77.7013 27.1176 78.4934 27.1417L80.1228 27.1912C80.9572 27.2166 81.393 28.1921 80.8557 28.832L73.1009 38.068C72.5686 38.7019 72.9908 39.6691 73.8168 39.7082L76.2353 39.8227C77.066 39.862 77.4864 40.8387 76.9446 41.4707L66.6757 53.4499C66.1385 54.0767 66.547 55.0458 67.3701 55.0971L81.3856 55.9707C81.9593 56.0065 82.3837 56.5171 82.3139 57.0875L80.4147 72.6063C80.3476 73.1545 80.7378 73.6522 81.2861 73.7179L88.5784 74.5924C89.1267 74.6581 89.6257 74.267 89.6928 73.7188L91.5919 58.2001C91.6617 57.6296 92.197 57.2341 92.7627 57.3349L106.584 59.7992C107.395 59.9439 108.026 59.0994 107.655 58.3638L100.573 44.304C100.199 43.5622 100.843 42.7132 101.659 42.8713L104.035 43.3317C104.847 43.4889 105.49 42.6496 105.126 41.9082L99.8237 31.1065C99.4563 30.3581 100.115 29.5137 100.931 29.6863L102.525 30.0234Z" fill="#8066B7"/>
<path d="M101.111 45.3654L108.555 60.1508L100.66 58.7436L96.7008 44.5513L101.111 45.3654Z" fill="#B292DF"/>
<path d="M100.495 32.2849L106.013 43.7149L99.6557 42.483L96.812 31.5105L100.495 32.2849Z" fill="#B292DF"/>
<path d="M93.7019 2.49585L104.323 30.4032L99.7075 29.4275L93.7019 2.49585Z" fill="#B292DF"/>
<path fill-rule="evenodd" clip-rule="evenodd" d="M725.37 77.0053C724.578 76.999 724.105 76.1174 724.539 75.4554L738.859 53.6007C739.3 52.9284 740.314 53.0272 740.62 53.7722L750.567 77.9899C750.868 78.7235 750.239 79.4977 749.46 79.3511L747.858 79.0496C747.037 78.8952 746.402 79.7544 746.79 80.4948L752.381 91.1805C752.764 91.9139 752.144 92.7678 751.329 92.6287L748.942 92.2212C748.123 92.0812 747.502 92.9448 747.896 93.6784L755.353 107.583C755.743 108.311 755.136 109.17 754.321 109.043L740.445 106.887C739.877 106.798 739.353 107.206 739.298 107.778L737.821 123.343C737.769 123.893 737.281 124.295 736.731 124.241L729.421 123.529C728.872 123.476 728.468 122.987 728.521 122.437L729.998 106.872C730.052 106.3 729.614 105.799 729.04 105.776L715.013 105.215C714.189 105.182 713.754 104.222 714.274 103.583L724.21 91.3721C724.734 90.7278 724.288 89.7604 723.457 89.7396L721.037 89.679C720.211 89.6583 719.763 88.7004 720.277 88.0545L727.776 78.6433C728.295 77.9912 727.834 77.0252 726.999 77.0185L725.37 77.0053Z" fill="#8154A4"/>
<path d="M723.457 92.2929L713.011 105.135L721.025 105.456L727.939 92.4448L723.457 92.2929Z" fill="#B292DF"/>
<path d="M726.867 79.6501L719.023 89.6285L725.497 89.7906L730.631 79.6846L726.867 79.6501Z" fill="#B292DF"/>
<path d="M739.898 52.0144L723.533 76.9903L728.25 77.0283L739.898 52.0144Z" fill="#B292DF"/>
<path fill-rule="evenodd" clip-rule="evenodd" d="M282.445 134.15C283.237 134.17 283.735 133.305 283.321 132.629L269.644 110.32C269.223 109.634 268.206 109.699 267.878 110.433L257.221 134.301C256.898 135.024 257.505 135.819 258.288 135.698L259.898 135.449C260.723 135.322 261.333 136.202 260.924 136.929L255.02 147.42C254.615 148.14 255.209 149.014 256.028 148.902L258.427 148.574C259.251 148.461 259.845 149.344 259.43 150.064L251.566 163.71C251.154 164.424 251.736 165.302 252.554 165.203L266.493 163.507C267.063 163.437 267.576 163.862 267.613 164.435L268.633 180.035C268.669 180.586 269.145 181.004 269.696 180.969L277.027 180.499C277.578 180.464 277.995 179.988 277.959 179.437L276.939 163.838C276.902 163.264 277.354 162.778 277.929 162.774L291.972 162.677C292.797 162.672 293.259 161.726 292.758 161.071L283.182 148.543C282.677 147.882 283.152 146.93 283.983 146.936L286.405 146.956C287.231 146.962 287.707 146.02 287.212 145.358L279.991 135.707C279.491 135.039 279.981 134.089 280.815 134.109L282.445 134.15Z" fill="#8066B7"/>
<path d="M283.909 149.488L293.976 162.663L285.953 162.719L279.422 149.491L283.909 149.488Z" fill="#B292DF"/>
<path d="M280.87 136.743L288.42 146.972L281.942 146.92L277.106 136.653L280.87 136.743Z" fill="#B292DF"/>
<path d="M268.652 108.701L284.282 134.196L279.564 134.078L268.652 108.701Z" fill="#B292DF"/>
<g filter="url(#filter0_i_128_13964)">
<path d="M103.996 66.7257L-7.56789 44.2961C-10.6632 43.6738 -13.5534 46.0408 -13.5534 49.198V455.583C-13.5534 510.185 31.9275 553.793 86.4819 551.498L779.609 522.336C811.698 520.986 840.986 503.679 857.646 476.22L958.636 309.782C990.406 257.423 965.688 189.106 907.771 169.197L764.839 120.064C741.349 111.989 715.644 113.334 693.124 123.815L529.947 199.759C502.444 212.559 470.508 211.606 443.816 197.189L408.529 178.128C395.797 171.251 381.675 167.341 367.219 166.691L276.916 162.628C257.956 161.775 239.674 155.322 224.381 144.082L141.924 83.4854C130.654 75.2025 117.709 69.4826 103.996 66.7257Z" fill="url(#paint0_linear_128_13964)"/>
</g>
<defs>
<filter id="filter0_i_128_13964" x="-17.5534" y="44.1963" width="990.159" height="509.388" filterUnits="userSpaceOnUse" color-interpolation-filters="sRGB">
<feFlood flood-opacity="0" result="BackgroundImageFix"/>
<feBlend mode="normal" in="SourceGraphic" in2="BackgroundImageFix" result="shape"/>
<feColorMatrix in="SourceAlpha" type="matrix" values="0 0 0 0 0 0 0 0 0 0 0 0 0 0 0 0 0 0 127 0" result="hardAlpha"/>
<feOffset dx="-12" dy="2"/>
<feGaussianBlur stdDeviation="2"/>
<feComposite in2="hardAlpha" operator="arithmetic" k2="-1" k3="1"/>
<feColorMatrix type="matrix" values="0 0 0 0 0.769272 0 0 0 0 0.676667 0 0 0 0 0.966667 0 0 0 0.4 0"/>
<feBlend mode="normal" in2="shape" result="effect1_innerShadow_128_13964"/>
</filter>
<linearGradient id="paint0_linear_128_13964" x1="519" y1="-72.5" x2="383.5" y2="451" gradientUnits="userSpaceOnUse">
<stop stop-color="#76418E"/>
<stop offset="1" stop-color="#8D8BDD"/>
</linearGradient>
</defs>
</svg>
