<svg width="697" height="452" viewBox="0 0 697 452" fill="none" xmlns="http://www.w3.org/2000/svg">
<path fill-rule="evenodd" clip-rule="evenodd" d="M353.196 160.287C352.464 160.286 352.014 159.483 352.396 158.859L361.047 144.745C361.482 144.036 362.542 144.139 362.835 144.919L368.678 160.442C368.936 161.128 368.344 161.83 367.625 161.69C366.869 161.542 366.27 162.319 366.605 163.014L369.675 169.389C370.029 170.124 369.406 170.948 368.604 170.807L368.378 170.767C367.571 170.625 366.947 171.459 367.31 172.193L371.502 180.68C371.861 181.408 371.251 182.237 370.45 182.109L362.597 180.855C362.028 180.764 361.501 181.172 361.446 181.746L360.491 191.831C360.439 192.381 359.951 192.784 359.401 192.73L355.44 192.345C354.891 192.292 354.487 191.803 354.539 191.253L355.495 181.167C355.549 180.593 355.109 180.091 354.533 180.071L346.587 179.789C345.777 179.761 345.334 178.829 345.823 178.184L351.532 170.66C352.026 170.008 351.57 169.069 350.752 169.054L350.523 169.049C349.709 169.033 349.252 168.104 349.737 167.451L353.949 161.784C354.407 161.166 353.965 160.288 353.196 160.287Z" fill="#724AA6"/>
<path d="M351.404 170.825L344.657 179.721L349.787 179.903L354.273 170.908L351.404 170.825Z" fill="#B987FF"/>
<path d="M353.645 162.1L348.577 169.011L352.722 169.091L356.055 162.106L353.645 162.1Z" fill="#B987FF"/>
<path d="M362.115 143.003L351.522 160.285L354.542 160.288L362.115 143.003Z" fill="#B987FF"/>
<path fill-rule="evenodd" clip-rule="evenodd" d="M493.494 126.218C492.713 126.355 492.089 125.573 492.396 124.843L500.183 106.339C500.495 105.598 501.51 105.512 501.946 106.189L512.826 123.109C513.255 123.776 512.776 124.652 511.984 124.648L511.474 124.646C510.639 124.642 510.169 125.602 510.684 126.26L516.099 133.183C516.609 133.835 516.154 134.787 515.327 134.798L514.219 134.812C513.387 134.822 512.933 135.784 513.453 136.434L520.792 145.622C521.307 146.267 520.865 147.221 520.041 147.244L509.469 147.536C508.895 147.552 508.453 148.047 508.503 148.62L509.551 160.622C509.599 161.173 509.192 161.656 508.642 161.703L503.211 162.164C502.661 162.211 502.176 161.803 502.127 161.253L501.079 149.25C501.029 148.677 500.508 148.264 499.939 148.345L489.472 149.839C488.656 149.955 488.055 149.09 488.451 148.367L494.089 138.078C494.489 137.349 493.875 136.478 493.054 136.608L491.959 136.781C491.143 136.91 490.529 136.049 490.918 135.321L495.053 127.587C495.446 126.852 494.818 125.985 493.996 126.13L493.494 126.218Z" fill="#724AA6"/>
<path d="M493.83 138.546L487.49 150.122L493.82 149.219L497.367 138.019L493.83 138.546Z" fill="#B287ED"/>
<path d="M494.682 128.14L489.969 137.095L495.069 136.289L497.638 127.625L494.682 128.14Z" fill="#B287ED"/>
<path d="M500.918 104.591L491.684 126.535L495.389 125.885L500.918 104.591Z" fill="#B287ED"/>
<path fill-rule="evenodd" clip-rule="evenodd" d="M454.627 135.726C453.926 135.803 453.396 135.105 453.659 134.45L460.555 117.293C460.895 116.446 462.097 116.46 462.418 117.313L468.925 134.619C469.174 135.279 468.628 135.966 467.929 135.873C467.198 135.777 466.649 136.526 466.961 137.194L470.544 144.864C470.874 145.57 470.304 146.366 469.529 146.282L469.284 146.255C468.505 146.17 467.935 146.973 468.273 147.68L473.055 157.689C473.389 158.387 472.836 159.184 472.065 159.116L464.849 158.477C464.269 158.426 463.767 158.879 463.761 159.462L463.625 171.486C463.619 172.038 463.166 172.481 462.614 172.475L459.115 172.436C458.563 172.43 458.12 171.977 458.127 171.425L458.262 159.401C458.269 158.819 457.778 158.354 457.196 158.392L449.968 158.872C449.195 158.923 448.66 158.114 449.01 157.423L454.017 147.523C454.371 146.824 453.819 146.008 453.039 146.075L452.792 146.097C452.016 146.164 451.464 145.356 451.81 144.657L455.565 137.068C455.892 136.407 455.36 135.646 454.627 135.726Z" fill="#764EAA"/>
<path d="M453.747 148.052L448.218 158.988L452.934 158.676L456.384 147.855L453.747 148.052Z" fill="#BB93F4"/>
<path d="M455.158 137.772L451.022 146.25L454.827 145.92L457.367 137.533L455.158 137.772Z" fill="#BB93F4"/>
<path d="M461.513 114.906L453.078 135.896L455.847 135.592L461.513 114.906Z" fill="#BB93F4"/>
<g filter="url(#filter0_i_128_13969)">
<path d="M642.116 45.3998L736.373 0.497562V351.51C736.373 406.129 690.866 449.743 636.296 447.423L167.864 427.513C93.7769 424.364 51.0812 341.982 91.2231 279.632L159.247 173.975C190.82 124.934 258.47 115.148 302.647 153.231L307.248 157.198C334.392 180.597 372.309 186.93 405.584 173.62L412.305 170.932L525.858 139.772C543.176 135.02 558.814 125.505 570.995 112.309L612.862 66.9531C621.152 57.9719 631.081 50.6565 642.116 45.3998Z" fill="url(#paint0_linear_128_13969)"/>
</g>
<defs>
<filter id="filter0_i_128_13969" x="75.8045" y="0.497559" width="668.569" height="447.014" filterUnits="userSpaceOnUse" color-interpolation-filters="sRGB">
<feFlood flood-opacity="0" result="BackgroundImageFix"/>
<feBlend mode="normal" in="SourceGraphic" in2="BackgroundImageFix" result="shape"/>
<feColorMatrix in="SourceAlpha" type="matrix" values="0 0 0 0 0 0 0 0 0 0 0 0 0 0 0 0 0 0 127 0" result="hardAlpha"/>
<feOffset dx="19"/>
<feGaussianBlur stdDeviation="4"/>
<feComposite in2="hardAlpha" operator="arithmetic" k2="-1" k3="1"/>
<feColorMatrix type="matrix" values="0 0 0 0 0.682667 0 0 0 0 0.533333 0 0 0 0 1 0 0 0 0.62 0"/>
<feBlend mode="normal" in2="shape" result="effect1_innerShadow_128_13969"/>
</filter>
<linearGradient id="paint0_linear_128_13969" x1="487" y1="24.9995" x2="663.733" y2="245.909" gradientUnits="userSpaceOnUse">
<stop stop-color="#76418E"/>
<stop offset="1" stop-color="#4E4CA6"/>
</linearGradient>
</defs>
</svg>
