<svg width="752" height="334" viewBox="0 0 752 334" fill="none" xmlns="http://www.w3.org/2000/svg">
<path d="M5.02209 347.874H964.849C1017.87 347.874 1060.85 304.894 1060.85 251.874V96.4846C1060.85 33.752 1001.67 -12.1245 940.914 3.51633L894.889 15.3657C886.456 17.5369 878.357 20.8454 870.816 25.2002L768.766 84.132C754.171 92.5607 737.613 96.9981 720.758 96.9981H607.155C599.106 96.9981 591.088 98.0105 583.292 100.011L506.907 119.614C499.567 121.498 492.476 124.244 485.782 127.795L342.335 203.891C328.478 211.242 313.032 215.085 297.347 215.085H229.695C211.879 215.085 194.414 220.043 179.255 229.404L2.39502 338.62C-1.89116 341.267 -0.0154591 347.874 5.02209 347.874Z" fill="#00020D"/>
</svg>
