<svg width="626" height="179" viewBox="0 0 626 179" fill="none" xmlns="http://www.w3.org/2000/svg">
<g filter="url(#filter0_i_128_14211)">
<path d="M0.37793 87.7537C0.37793 50.0121 28.0019 17.9551 65.3294 12.3792L139.458 1.3059C148.967 -0.114582 158.636 -0.098464 168.141 1.35372L289.2 19.8502C298.879 21.3291 308.275 24.28 317.062 28.6007L382.635 60.8449C387.01 62.996 391.542 64.8108 396.192 66.2735L507.539 101.296L622.792 154.799C627.236 156.861 626.37 163.421 621.543 164.26L546.548 177.298C540.09 178.421 533.534 178.879 526.982 178.666L74.1092 163.924C33.0061 162.586 0.37793 128.879 0.37793 87.7537Z" fill="url(#paint0_linear_128_14211)"/>
</g>
<defs>
<filter id="filter0_i_128_14211" x="-3.62207" y="0.252441" width="629.311" height="182.465" filterUnits="userSpaceOnUse" color-interpolation-filters="sRGB">
<feFlood flood-opacity="0" result="BackgroundImageFix"/>
<feBlend mode="normal" in="SourceGraphic" in2="BackgroundImageFix" result="shape"/>
<feColorMatrix in="SourceAlpha" type="matrix" values="0 0 0 0 0 0 0 0 0 0 0 0 0 0 0 0 0 0 127 0" result="hardAlpha"/>
<feOffset dx="-4" dy="5"/>
<feGaussianBlur stdDeviation="2"/>
<feComposite in2="hardAlpha" operator="arithmetic" k2="-1" k3="1"/>
<feColorMatrix type="matrix" values="0 0 0 0 0.76035 0 0 0 0 0.5325 0 0 0 0 0.9 0 0 0 0.4 0"/>
<feBlend mode="normal" in2="shape" result="effect1_innerShadow_128_14211"/>
</filter>
<linearGradient id="paint0_linear_128_14211" x1="432" y1="16.5" x2="292.367" y2="210.183" gradientUnits="userSpaceOnUse">
<stop stop-color="#3D61B6"/>
<stop offset="1" stop-color="#08215B"/>
</linearGradient>
</defs>
</svg>
