<svg width="1920" height="444" viewBox="0 0 1920 444" fill="none" xmlns="http://www.w3.org/2000/svg">
<g filter="url(#filter0_f_128_14090)">
<g filter="url(#filter1_f_128_14090)">
<path d="M127.378 503.018L280.803 522.996L430.804 503.018L571.008 449.902L696.563 427.327L826.304 374.826L725.86 359.604L127.378 381.466V503.018Z" fill="#939BE4"/>
</g>
<g filter="url(#filter2_f_128_14090)">
<path d="M1573.65 486.565L1489.32 501.002L1406.86 478.824L1329.8 419.858L1260.78 394.798L1189.46 336.516L1244.68 319.617L1573.65 343.887L2216.47 453.97L1745.64 512.1L1573.65 486.565Z" fill="#939BE4"/>
</g>
<g filter="url(#filter3_f_128_14090)">
<path fill-rule="evenodd" clip-rule="evenodd" d="M1108.81 348.557L1177.55 344.29L1251.29 361.642L1365.13 357.61L1835.97 310.188L1588.24 275.579C1433.99 282.488 1258.63 286.393 1072.65 286.393C841.185 286.393 626.153 280.343 447.79 269.983L436.832 310.063L508.149 357.61L577.165 378.055L724.304 348.557L814.697 322.144L920.809 310.188L1026.36 330.464L1108.81 348.557Z" fill="#939BE4"/>
</g>
<path fill-rule="evenodd" clip-rule="evenodd" d="M1159.73 212.011C1171.51 212.937 1183.35 211.682 1194.68 208.307L1235.75 196.063C1246.03 192.998 1256.76 191.678 1267.48 192.159L1365.13 196.54C1417.47 203.217 1437.6 253.547 1424.2 292.895C1313.66 288.909 1195.47 286.752 1072.65 286.752C823.335 286.752 593.086 295.643 407.19 310.671L216.852 256.61L500.819 198.051C505.698 197.045 510.492 195.661 515.156 193.91L548.984 181.217C567.331 174.333 587.346 173.228 606.339 178.051L724.304 208.008L805.084 237.907C811.474 240.273 818.098 241.951 824.844 242.914L902.51 253.998C914.599 255.723 926.906 255.126 938.771 252.239L1026.36 230.927L1092.48 212.548C1103.28 209.545 1114.53 208.458 1125.71 209.337L1159.73 212.011Z" fill="url(#paint0_linear_128_14090)"/>
<ellipse cx="1072.66" cy="408.674" rx="1117.45" ry="121.674" fill="url(#paint1_linear_128_14090)"/>
<g filter="url(#filter4_i_128_14090)">
<path d="M199.378 300.754C199.378 263.012 227.002 230.955 264.329 225.379L338.458 214.306C347.967 212.885 357.636 212.902 367.141 214.354L488.2 232.85C497.879 234.329 507.275 237.28 516.062 241.601L581.635 273.845C586.01 275.996 590.542 277.811 595.192 279.274L706.539 314.296L821.792 367.799C826.236 369.861 825.37 376.421 820.543 377.26L745.548 390.298C739.09 391.421 732.534 391.879 725.982 391.666L273.109 376.924C232.006 375.586 199.378 341.879 199.378 300.754Z" fill="url(#paint2_linear_128_14090)"/>
</g>
<path fill-rule="evenodd" clip-rule="evenodd" d="M1579.09 120.328C1578.32 120.384 1577.78 119.589 1578.11 118.896L1606.05 61.2611C1606.43 60.4798 1607.55 60.5167 1607.87 61.321L1631.77 120.656C1632.05 121.369 1631.46 122.127 1630.7 122.021L1623.47 121.013C1622.67 120.902 1622.08 121.735 1622.44 122.455L1637.03 151.388C1637.39 152.1 1636.81 152.926 1636.02 152.832L1627.02 151.761C1626.22 151.667 1625.64 152.502 1626.01 153.214L1644.65 189.334C1645.02 190.039 1644.45 190.868 1643.66 190.788L1612.91 187.682C1612.33 187.624 1611.82 188.065 1611.8 188.644L1610.44 228.143C1610.42 228.695 1609.96 229.128 1609.41 229.11L1592.94 228.57C1592.39 228.552 1591.96 228.09 1591.98 227.538L1593.34 188.038C1593.36 187.46 1592.89 186.986 1592.31 187.006L1561.41 188.09C1560.62 188.118 1560.11 187.254 1560.52 186.574L1581.62 151.758C1582.03 151.071 1581.51 150.2 1580.71 150.242L1571.66 150.721C1570.86 150.763 1570.34 149.9 1570.75 149.213L1587.3 121.302C1587.71 120.608 1587.17 119.737 1586.37 119.796L1579.09 120.328Z" fill="#214B98"/>
<path d="M1578.83 156.343L1559.56 188.155L1575.42 187.6L1587.7 155.968L1578.83 156.343Z" fill="#5553A9"/>
<path d="M1584.23 126.145L1569.79 150.819L1582.59 150.143L1591.66 125.612L1584.23 126.145Z" fill="#5553A9"/>
<path d="M1607.03 59.2285L1577.36 120.454L1586.68 119.773L1607.03 59.2285Z" fill="#5553A9"/>
<path fill-rule="evenodd" clip-rule="evenodd" d="M1660.18 90.5956C1659.43 90.7675 1658.78 90.0633 1659.01 89.3275L1683.65 9.34494C1683.91 8.51527 1685.02 8.38096 1685.47 9.12676L1728.1 81.0244C1728.49 81.6858 1728.02 82.5252 1727.25 82.5358L1716.79 82.681C1715.99 82.6922 1715.52 83.6061 1715.99 84.2629L1740.87 119.151C1741.33 119.8 1740.88 120.705 1740.09 120.732L1727.33 121.166C1726.53 121.193 1726.08 122.107 1726.55 122.755L1758 165.989C1758.47 166.631 1758.04 167.536 1757.25 167.577L1716.62 169.681C1716.04 169.71 1715.61 170.224 1715.68 170.799L1721.74 221.975C1721.8 222.523 1721.41 223.021 1720.86 223.087L1699.21 225.689C1698.66 225.755 1698.17 225.364 1698.1 224.815L1692.04 173.639C1691.97 173.064 1691.43 172.668 1690.86 172.776L1650.89 180.359C1650.11 180.507 1649.47 179.73 1649.78 178.995L1670.25 129.521C1670.56 128.779 1669.91 127.998 1669.12 128.161L1656.62 130.762C1655.84 130.925 1655.2 130.152 1655.5 129.411L1671.53 89.6063C1671.83 88.8569 1671.17 88.0785 1670.38 88.2589L1660.18 90.5956Z" fill="#1F4594"/>
<path d="M1667.39 136.41L1649.07 180.703L1669.16 176.893L1678.61 134.198L1667.39 136.41Z" fill="#5553A9"/>
<path d="M1668.36 96.8884L1654.8 131.142L1670.97 127.776L1677.72 94.7544L1668.36 96.8884Z" fill="#5553A9"/>
<path d="M1684.31 7.18628L1658.5 90.982L1670.23 88.2919L1684.31 7.18628Z" fill="#5553A9"/>
<g filter="url(#filter5_i_128_14090)">
<path d="M1555.32 186.432C1544.95 188.024 1534.38 187.904 1524.04 186.075L1476.77 177.712C1462.65 175.214 1448.15 175.911 1434.33 179.751L1405.43 187.784C1384.35 193.643 1365.91 206.525 1353.15 224.297L1351.58 226.488C1340.5 241.918 1325.1 253.715 1307.32 260.388L1281.11 270.221C1270.83 274.079 1261.29 279.672 1252.9 286.758L1201.19 330.427C1198.18 332.967 1199.15 337.827 1202.91 339.014L1232.51 348.378C1243.72 351.924 1255.49 353.38 1267.23 352.673L1539.65 336.279L2150.12 228.245C2155.76 227.247 2155.56 219.087 2149.88 218.362L1725.02 164.156C1716.14 163.024 1707.15 163.138 1698.31 164.495L1555.32 186.432Z" fill="url(#paint3_linear_128_14090)"/>
</g>
</g>
<defs>
<filter id="filter0_f_128_14090" x="-47.7901" y="0.790527" width="2267.26" height="532.558" filterUnits="userSpaceOnUse" color-interpolation-filters="sRGB">
<feFlood flood-opacity="0" result="BackgroundImageFix"/>
<feBlend mode="normal" in="SourceGraphic" in2="BackgroundImageFix" result="shape"/>
<feGaussianBlur stdDeviation="1.5" result="effect1_foregroundBlur_128_14090"/>
</filter>
<filter id="filter1_f_128_14090" x="121.378" y="353.604" width="710.926" height="175.392" filterUnits="userSpaceOnUse" color-interpolation-filters="sRGB">
<feFlood flood-opacity="0" result="BackgroundImageFix"/>
<feBlend mode="normal" in="SourceGraphic" in2="BackgroundImageFix" result="shape"/>
<feGaussianBlur stdDeviation="3" result="effect1_foregroundBlur_128_14090"/>
</filter>
<filter id="filter2_f_128_14090" x="1183.46" y="313.617" width="1039.01" height="204.482" filterUnits="userSpaceOnUse" color-interpolation-filters="sRGB">
<feFlood flood-opacity="0" result="BackgroundImageFix"/>
<feBlend mode="normal" in="SourceGraphic" in2="BackgroundImageFix" result="shape"/>
<feGaussianBlur stdDeviation="3" result="effect1_foregroundBlur_128_14090"/>
</filter>
<filter id="filter3_f_128_14090" x="430.832" y="263.983" width="1411.13" height="120.072" filterUnits="userSpaceOnUse" color-interpolation-filters="sRGB">
<feFlood flood-opacity="0" result="BackgroundImageFix"/>
<feBlend mode="normal" in="SourceGraphic" in2="BackgroundImageFix" result="shape"/>
<feGaussianBlur stdDeviation="3" result="effect1_foregroundBlur_128_14090"/>
</filter>
<filter id="filter4_i_128_14090" x="195.378" y="213.252" width="629.311" height="182.465" filterUnits="userSpaceOnUse" color-interpolation-filters="sRGB">
<feFlood flood-opacity="0" result="BackgroundImageFix"/>
<feBlend mode="normal" in="SourceGraphic" in2="BackgroundImageFix" result="shape"/>
<feColorMatrix in="SourceAlpha" type="matrix" values="0 0 0 0 0 0 0 0 0 0 0 0 0 0 0 0 0 0 127 0" result="hardAlpha"/>
<feOffset dx="-4" dy="5"/>
<feGaussianBlur stdDeviation="2"/>
<feComposite in2="hardAlpha" operator="arithmetic" k2="-1" k3="1"/>
<feColorMatrix type="matrix" values="0 0 0 0 0.76035 0 0 0 0 0.5325 0 0 0 0 0.9 0 0 0 0.4 0"/>
<feBlend mode="normal" in2="shape" result="effect1_innerShadow_128_14090"/>
</filter>
<filter id="filter5_i_128_14090" x="1199.41" y="163.385" width="958.835" height="189.462" filterUnits="userSpaceOnUse" color-interpolation-filters="sRGB">
<feFlood flood-opacity="0" result="BackgroundImageFix"/>
<feBlend mode="normal" in="SourceGraphic" in2="BackgroundImageFix" result="shape"/>
<feColorMatrix in="SourceAlpha" type="matrix" values="0 0 0 0 0 0 0 0 0 0 0 0 0 0 0 0 0 0 127 0" result="hardAlpha"/>
<feOffset dx="11"/>
<feGaussianBlur stdDeviation="2"/>
<feComposite in2="hardAlpha" operator="arithmetic" k2="-1" k3="1"/>
<feColorMatrix type="matrix" values="0 0 0 0 0.766667 0 0 0 0 0.583333 0 0 0 0 1 0 0 0 0.25 0"/>
<feBlend mode="normal" in2="shape" result="effect1_innerShadow_128_14090"/>
</filter>
<linearGradient id="paint0_linear_128_14090" x1="823" y1="150" x2="845.5" y2="362" gradientUnits="userSpaceOnUse">
<stop stop-color="#D8DCFF"/>
<stop offset="1" stop-color="#849FEE"/>
</linearGradient>
<linearGradient id="paint1_linear_128_14090" x1="1073" y1="286.547" x2="1118.03" y2="586.305" gradientUnits="userSpaceOnUse">
<stop stop-color="#C5C4FF"/>
<stop offset="0.822917" stop-color="#0A2F67" stop-opacity="0.47"/>
</linearGradient>
<linearGradient id="paint2_linear_128_14090" x1="631" y1="229.5" x2="491.367" y2="423.183" gradientUnits="userSpaceOnUse">
<stop stop-color="#3D61B6"/>
<stop offset="1" stop-color="#08215B"/>
</linearGradient>
<linearGradient id="paint3_linear_128_14090" x1="1391" y1="182.5" x2="1451.5" y2="368" gradientUnits="userSpaceOnUse">
<stop stop-color="#3D61B6"/>
<stop offset="1" stop-color="#08215B"/>
</linearGradient>
</defs>
</svg>
