<svg width="1213" height="136" viewBox="0 0 1213 136" fill="none" xmlns="http://www.w3.org/2000/svg">
<path fill-rule="evenodd" clip-rule="evenodd" d="M943.728 37.0114C955.506 37.9375 967.354 36.6815 978.676 33.3067L1019.75 21.0628C1030.03 17.9978 1040.76 16.6783 1051.48 17.1591L1149.13 21.5396C1201.47 28.217 1221.6 78.5466 1208.2 117.895C1097.66 113.909 979.472 111.752 856.655 111.752C607.335 111.752 377.086 120.643 191.19 135.671L0.85199 81.6097L284.819 23.0513C289.698 22.0451 294.492 20.6606 299.156 18.9104L332.984 6.2171C351.331 -0.667239 371.346 -1.77199 390.339 3.05124L508.304 33.008L589.084 62.9074C595.474 65.2727 602.098 66.9509 608.844 67.9136L686.51 78.998C698.599 80.7233 710.906 80.1263 722.771 77.2392L810.358 55.9265L876.479 37.548C887.284 34.5446 898.532 33.4578 909.713 34.3369L943.728 37.0114Z" fill="url(#paint0_linear_128_14207)"/>
<defs>
<linearGradient id="paint0_linear_128_14207" x1="607" y1="-24.9998" x2="629.5" y2="187" gradientUnits="userSpaceOnUse">
<stop stop-color="#D8DCFF"/>
<stop offset="1" stop-color="#849FEE"/>
</linearGradient>
</defs>
</svg>
