<svg width="179" height="296" viewBox="0 0 179 296" fill="none" xmlns="http://www.w3.org/2000/svg">
<path fill-rule="evenodd" clip-rule="evenodd" d="M137.715 103.9C138.497 103.926 139.004 103.084 138.614 102.405L81.5167 2.84407C81.1035 2.12358 80.0436 2.19004 79.7255 2.95638L35.7759 108.853C35.476 109.575 36.0854 110.347 36.8582 110.224L53.6175 107.555C54.4304 107.426 55.0439 108.279 54.662 109.008L26.99 161.801C26.6119 162.522 27.2097 163.369 28.0165 163.256L48.2174 160.414C49.0288 160.3 49.6267 161.156 49.2393 161.878L14.1775 227.177C13.7936 227.892 14.3777 228.744 15.1835 228.643L75.9411 221.084C76.513 221.013 77.0271 221.439 77.0639 222.014L81.4772 290.979C81.5124 291.53 81.9879 291.949 82.5391 291.915L115.56 289.844C116.111 289.81 116.529 289.335 116.494 288.784L112.081 219.818C112.044 219.243 112.5 218.756 113.076 218.756L174.312 218.666C175.124 218.665 175.595 217.747 175.123 217.086L132.017 156.687C131.541 156.02 132.025 155.096 132.844 155.107L153.246 155.404C154.061 155.416 154.546 154.5 154.079 153.832L119.899 104.917C119.427 104.242 119.927 103.319 120.75 103.346L137.715 103.9Z" fill="#00020D"/>
<path d="M138.286 165.449L176.249 218.663L146.123 218.709L121.437 165.364L138.286 165.449Z" fill="#03215B"/>
<path d="M126.722 114.127L155.197 155.432L130.869 155.079L112.585 113.681L126.722 114.127Z" fill="#03215B"/>
<path d="M80.5046 1.0791L139.505 103.959L121.787 103.38L80.5046 1.0791Z" fill="#03215B"/>
</svg>
