<svg width="203" height="802" viewBox="0 0 203 802" fill="none" xmlns="http://www.w3.org/2000/svg">
<path fill-rule="evenodd" clip-rule="evenodd" d="M146.51 293.415C147.244 293.52 147.833 292.818 147.601 292.113L52.7177 3.06043C52.4165 2.14294 51.1187 2.14294 50.8175 3.06043L-44.0662 292.113C-44.2975 292.818 -43.7084 293.52 -42.9743 293.415L-8.2347 288.441C-7.47081 288.331 -6.87614 289.091 -7.16636 289.807L-66.7194 436.526C-67.0052 437.23 -66.4325 437.983 -65.6778 437.896L-24.3757 433.112C-23.6176 433.025 -23.0445 433.784 -23.337 434.489L-97.9719 614.308C-98.2604 615.003 -97.7065 615.755 -96.9569 615.687L18.3689 605.107C18.9548 605.053 19.4602 605.514 19.4602 606.103V800.365C19.4602 800.917 19.9079 801.365 20.4602 801.365H83.075C83.6272 801.365 84.075 800.917 84.075 800.365V606.103C84.075 605.514 84.5804 605.053 85.1663 605.107L200.492 615.687C201.242 615.755 201.796 615.003 201.507 614.308L126.872 434.489C126.58 433.784 127.153 433.025 127.911 433.112L169.213 437.896C169.968 437.983 170.54 437.23 170.255 436.526L110.702 289.807C110.411 289.091 111.006 288.331 111.77 288.441L146.51 293.415Z" fill="#00020D"/>
<path d="M138.631 462.753L202.143 615.838L146.77 610.764L107.675 459.61L138.631 462.753Z" fill="#03215B"/>
<path d="M123.414 319.434L170.889 438.09L126.219 432.916L97.4848 315.767L123.414 319.434Z" fill="#03215B"/>
<path d="M51.7676 0.166016L148.104 293.644L115.609 288.99L51.7676 0.166016Z" fill="#03215B"/>
</svg>
