<svg width="173" height="282" viewBox="0 0 173 282" fill="none" xmlns="http://www.w3.org/2000/svg">
<path fill-rule="evenodd" clip-rule="evenodd" d="M135.494 113.718C136.241 113.889 136.896 113.189 136.677 112.455L105.086 6.70192C104.835 5.86343 103.703 5.73139 103.262 6.48932L47.708 102.08C47.3224 102.744 47.7956 103.575 48.5624 103.581L63.0205 103.695C63.8246 103.701 64.2908 104.605 63.8303 105.265L31.1086 152.161C30.6534 152.814 31.1034 153.709 31.8978 153.731L49.3412 154.228C50.1398 154.251 50.5887 155.154 50.125 155.806L8.93868 213.676C8.47979 214.321 8.91452 215.216 9.70441 215.253L62.6143 217.721C63.1934 217.748 63.6271 218.26 63.5586 218.835L55.4946 286.592C55.4294 287.14 55.8212 287.637 56.3697 287.701L84.6745 291.002C85.2231 291.065 85.7207 290.673 85.786 290.124L93.85 222.368C93.9185 221.792 94.4605 221.394 95.0301 221.501L147.071 231.271C147.848 231.417 148.481 230.647 148.186 229.914L121.713 164.154C121.415 163.413 122.064 162.638 122.846 162.8L139.929 166.329C140.707 166.49 141.354 165.723 141.065 164.984L120.249 111.845C119.956 111.097 120.621 110.325 121.405 110.504L135.494 113.718Z" fill="#00020D"/>
<path d="M125.572 173.708L148.868 231.609L123.124 226.778L111.193 170.898L125.572 173.708Z" fill="#03215B"/>
<path d="M124.503 121.92L141.738 166.703L121.016 162.421L112.502 119.199L124.503 121.92Z" fill="#03215B"/>
<path d="M104.425 4.48926L137.169 114.1L122.132 110.669L104.425 4.48926Z" fill="#03215B"/>
</svg>
