<svg width="280" height="578" viewBox="0 0 280 578" fill="none" xmlns="http://www.w3.org/2000/svg">
<path fill-rule="evenodd" clip-rule="evenodd" d="M218.642 226.509C219.361 226.689 220.021 226.053 219.866 225.328L172.975 6.23886C172.773 5.29444 171.481 5.15999 171.085 6.04217L79.2005 210.693C78.8966 211.37 79.4087 212.129 80.1497 212.1L105.21 211.125C105.981 211.095 106.492 211.912 106.129 212.593L51.2792 315.38C50.9214 316.051 51.4118 316.858 52.1714 316.849L82.0312 316.494C82.7943 316.485 83.2843 317.299 82.9196 317.97L14.3888 444.014C14.0291 444.675 14.5008 445.481 15.2533 445.49L100.157 446.506C100.746 446.513 101.2 447.024 101.138 447.609L85.9944 590.23C85.9361 590.78 86.3341 591.271 86.8834 591.328L132.402 596.064C132.951 596.121 133.444 595.722 133.502 595.173L148.646 452.552C148.708 451.967 149.26 451.56 149.837 451.674L233.099 468.154C233.837 468.3 234.468 467.609 234.255 466.888L193.696 329.495C193.48 328.763 194.13 328.068 194.875 328.234L224.008 334.727C224.749 334.892 225.398 334.203 225.189 333.474L193.127 221.645C192.915 220.904 193.587 220.21 194.335 220.398L218.642 226.509Z" fill="#00020D"/>
<path d="M200.005 350.802L234.723 468.475L194.408 460.501L177.491 346.117L200.005 350.802Z" fill="#03215B"/>
<path d="M200.032 244.019L225.653 335.093L193.214 327.864L181.254 239.333L200.032 244.019Z" fill="#03215B"/>
<path d="M172.336 3.25439L220.203 226.901L196.675 220.986L172.336 3.25439Z" fill="#03215B"/>
</svg>
