<svg width="91" height="172" viewBox="0 0 91 172" fill="none" xmlns="http://www.w3.org/2000/svg">
<path fill-rule="evenodd" clip-rule="evenodd" d="M20.0854 61.3282C19.3179 61.3842 18.7787 60.5889 19.1145 59.8961L47.0466 2.26132C47.4252 1.48007 48.5503 1.51698 48.8742 2.32128L72.7675 61.656C73.0547 62.3693 72.4618 63.1275 71.6999 63.0213L64.4719 62.0136C63.6725 61.9022 63.0758 62.7351 63.439 63.4554L78.0288 92.3878C78.3879 93.0999 77.8083 93.9264 77.0158 93.8322L68.0159 92.7616C67.2192 92.6668 66.6394 93.5018 67.0072 94.2143L85.6524 130.334C86.0166 131.039 85.4517 131.868 84.6614 131.789L53.9066 128.682C53.3306 128.624 52.8249 129.066 52.8049 129.644L51.441 169.144C51.422 169.696 50.959 170.128 50.4071 170.11L33.943 169.57C33.391 169.552 32.959 169.09 32.978 168.538L34.3419 129.039C34.3619 128.46 33.8878 127.986 33.3091 128.006L2.40959 129.09C1.61559 129.118 1.10919 128.254 1.52114 127.574L22.6158 92.7582C23.0319 92.0714 22.511 91.2003 21.7096 91.2426L12.6561 91.721C11.859 91.7631 11.3376 90.9005 11.7451 90.2135L28.2976 62.3027C28.7097 61.6079 28.1718 60.7377 27.3665 60.7965L20.0854 61.3282Z" fill="#214B98"/>
<path d="M19.8299 97.3427L0.56308 129.155L16.4223 128.6L28.6982 96.9675L19.8299 97.3427Z" fill="#5553A9"/>
<path d="M25.2255 67.1453L10.7926 91.8193L23.5946 91.1428L32.6614 66.6121L25.2255 67.1453Z" fill="#5553A9"/>
<path d="M48.0316 0.228516L18.3593 61.4539L27.6785 60.7733L48.0316 0.228516Z" fill="#5553A9"/>
</svg>
