<svg width="197" height="344" viewBox="0 0 197 344" fill="none" xmlns="http://www.w3.org/2000/svg">
<path fill-rule="evenodd" clip-rule="evenodd" d="M38.3975 127.212C37.6296 127.329 37.0263 126.564 37.3195 125.845L87.6061 2.51429C87.9255 1.73111 89.0131 1.6747 89.4133 2.42054L152.448 119.872C152.816 120.557 152.296 121.38 151.52 121.343L132.081 120.415C131.265 120.376 130.75 121.278 131.197 121.961L169.256 180.095C169.698 180.771 169.199 181.665 168.391 181.641L145.085 180.971C144.273 180.947 143.774 181.85 144.226 182.525L192.14 254.182C192.588 254.851 192.103 255.746 191.298 255.737L122.55 254.907C121.973 254.9 121.51 255.382 121.541 255.959L125.821 336.797C125.85 337.349 125.427 337.819 124.875 337.848L87.7595 339.773C87.208 339.802 86.7372 339.378 86.708 338.826L82.428 257.988C82.3975 257.411 81.8863 256.98 81.3128 257.046L13.0293 264.985C12.2303 265.077 11.6533 264.237 12.0275 263.525L52.1129 187.304C52.4907 186.585 51.8994 185.739 51.0946 185.847L27.9863 188.925C27.1858 189.032 26.5947 188.194 26.9634 187.476L58.6743 125.723C59.047 124.997 58.4395 124.154 57.6326 124.277L38.3975 127.212Z" fill="#00020D"/>
<path d="M46.168 198.577L11.1448 265.203L44.5496 261.323L64.8361 196.278L46.168 198.577Z" fill="#03215B"/>
<path d="M52.1752 137.591L26.0898 189.178L53.0144 185.591L67.7891 135.229L52.1752 137.591Z" fill="#03215B"/>
<path d="M88.4081 0.547363L36.6537 127.477L56.2197 124.492L88.4081 0.547363Z" fill="#03215B"/>
</svg>
