<svg width="193" height="599" viewBox="0 0 193 599" fill="none" xmlns="http://www.w3.org/2000/svg">
<path fill-rule="evenodd" clip-rule="evenodd" d="M50.1228 220.304C49.3758 220.409 48.7854 219.68 49.0431 218.972L127.409 3.41645C127.722 2.55631 128.93 2.53486 129.275 3.38333L215.695 216.014C215.98 216.713 215.417 217.463 214.667 217.385L184.903 214.284C184.118 214.203 183.553 215.019 183.905 215.725L237.401 322.952C237.748 323.648 237.202 324.457 236.426 324.394L200.988 321.528C200.208 321.465 199.662 322.281 200.017 322.978L267.108 454.574C267.46 455.263 266.93 456.072 266.158 456.026L165.975 449.973C165.393 449.938 164.905 450.406 164.916 450.989L167.621 594.814C167.632 595.366 167.192 595.822 166.64 595.831L112.35 596.795C111.798 596.805 111.342 596.365 111.331 595.813L108.626 451.988C108.615 451.405 108.11 450.954 107.529 451.01L7.64036 460.613C6.87089 460.687 6.3112 459.897 6.63633 459.196L68.7333 325.307C69.0623 324.598 68.4859 323.802 67.709 323.893L32.4021 328.014C31.6291 328.105 31.053 327.316 31.3742 326.608L80.8009 217.554C81.1263 216.836 80.5309 216.041 79.7501 216.15L50.1228 220.304Z" fill="#00020D"/>
<path d="M59.0905 346.047L5.90154 460.78L54.0688 456.154L86.0142 343.233L59.0905 346.047Z" fill="#03215B"/>
<path d="M70.3432 239.318L30.6435 328.22L69.4864 323.685L92.8807 236.192L70.3432 239.318Z" fill="#03215B"/>
<path d="M128.296 0.975342L48.4745 220.536L76.7178 216.576L128.296 0.975342Z" fill="#03215B"/>
</svg>
