<svg width="134" height="228" viewBox="0 0 134 228" fill="none" xmlns="http://www.w3.org/2000/svg">
<path fill-rule="evenodd" clip-rule="evenodd" d="M29.1826 87.5956C28.4325 87.7675 27.7788 87.0633 28.0055 86.3275L52.6499 6.34494C52.9055 5.51527 54.0232 5.38096 54.4654 6.12676L97.0965 78.0244C97.4886 78.6858 97.0178 79.5252 96.2485 79.5358L85.7928 79.681C84.9858 79.6922 84.5224 80.6061 84.9908 81.2629L109.869 116.151C110.332 116.8 109.884 117.705 109.087 117.732L96.33 118.166C95.5282 118.193 95.0819 119.107 95.5536 119.755L127.005 162.989C127.472 163.631 127.039 164.536 126.246 164.577L85.6207 166.681C85.0426 166.71 84.6097 167.224 84.6778 167.799L90.7385 218.975C90.8034 219.523 90.4115 220.021 89.8632 220.087L68.2117 222.689C67.6634 222.755 67.1662 222.364 67.1013 221.815L61.0407 170.639C60.9726 170.064 60.4321 169.668 59.8632 169.776L19.8867 177.359C19.1061 177.507 18.4744 176.73 18.7783 175.995L39.2505 126.521C39.5575 125.779 38.9105 124.998 38.1248 125.161L25.6246 127.762C24.8431 127.925 24.1969 127.152 24.4953 126.411L40.5277 86.6063C40.8295 85.8569 40.1658 85.0785 39.3788 85.2589L29.1826 87.5956Z" fill="#1F4594"/>
<path d="M36.3902 133.41L18.0714 177.703L38.1647 173.893L47.6136 131.198L36.3902 133.41Z" fill="#5553A9"/>
<path d="M37.3554 93.8884L23.7977 128.142L39.9729 124.776L46.7232 91.7544L37.3554 93.8884Z" fill="#5553A9"/>
<path d="M53.3149 4.18628L27.4956 87.982L39.2335 85.2919L53.3149 4.18628Z" fill="#5553A9"/>
</svg>
