<svg width="154" height="345" viewBox="0 0 154 345" fill="none" xmlns="http://www.w3.org/2000/svg">
<path fill-rule="evenodd" clip-rule="evenodd" d="M111.995 121.291C112.735 121.333 113.261 120.585 112.971 119.903L63.508 3.61344C63.1286 2.72156 61.8301 2.83401 61.613 3.77755L33.3017 126.802C33.1356 127.524 33.785 128.171 34.5062 128.002L46.9794 125.08C47.7297 124.904 48.3898 125.608 48.1665 126.345L29.2885 188.663C29.0687 189.389 29.706 190.086 30.449 189.934L45.6451 186.808C46.3914 186.654 47.0298 187.359 46.8033 188.086L22.8513 264.989C22.628 265.706 23.2465 266.406 23.9859 266.272L70.3033 257.9C70.8825 257.796 71.4273 258.211 71.4792 258.798L78.633 339.738C78.6817 340.288 79.1671 340.696 79.7174 340.648L104.775 338.478C105.325 338.43 105.732 337.946 105.683 337.396L98.5291 256.455C98.4773 255.869 98.9408 255.366 99.5296 255.369L146.612 255.652C147.364 255.657 147.85 254.862 147.504 254.194L110.425 182.576C110.075 181.899 110.58 181.095 111.342 181.118L126.855 181.585C127.614 181.607 128.119 180.811 127.775 180.134L98.2519 122.007C97.9026 121.32 98.4293 120.514 99.199 120.558L111.995 121.291Z" fill="#00020D"/>
<path d="M115.955 193.233L148.264 255.662L124.894 255.524L102.878 193.027L115.955 193.233Z" fill="#03215B"/>
<path d="M104.229 133.183L128.538 181.635L109.644 181.067L93.2366 132.573L104.229 133.183Z" fill="#03215B"/>
<path d="M62.3028 0.779785L113.601 121.383L99.8231 120.593L62.3028 0.779785Z" fill="#03215B"/>
</svg>
